<?xml version="1.0" encoding="UTF-8"?>
<svg
  id="AngularLateralLogo"
  xmlns="http://www.w3.org/2000/svg"
  width="360" height="96"
  viewBox="0 0 360 96">
  <defs>
    <style>
      .filled.radiant.gradient
      {
        fill: url(#radial-gradient);
      }
      .filled.linear.gradient
      {
        fill: url(#linear-gradient);
      }
    </style>
    <linearGradient
      id="linear-gradient"
      x1="8" y1="-286.7"
      x2="352" y2="-286.7"
      gradientTransform="translate(0 -238.7) scale(1 -1)"
      gradientUnits="userSpaceOnUse">
      <stop offset="0" stop-color="#f0060b"/>
      <stop offset="0" stop-color="#f0070c"/>
      <stop offset="50%" stop-color="#cc26d5"/>
      <stop offset="100%" stop-color="#7702ff"/>
    </linearGradient>
    <radialGradient
      id="radial-gradient"
      cx="-230.3" cy="608.6"
      fx="-230.3" fy="608.6" r=".3"
      gradientTransform="translate(-132676.7 -17251.2) rotate(118.1) scale(205.8 -205.8)"
      gradientUnits="userSpaceOnUse">
      <stop offset="0" stop-color="#ff41f8"/>
      <stop offset="70%" stop-color="#ff41f8" stop-opacity="0.5"/>
      <stop offset="100%" stop-color="#ff41f8" stop-opacity="0"/>
    </radialGradient>
  </defs>
  <path
    class="filled radiant gradient"
    d="M143.3,72.1h10.3l-18.8-53.5h-12l-18.8,53.5h10.3l4.4-13.2h20.1l4.4,13.2h0ZM121.4,51.2l
    7.2-21.5h.4l7.2,21.5h-14.9,0ZM165.4,48.6v23.5h-9.4v-40.1h9v6.8h.5c.9-2.2,2.4-4,4.4-5.3,
    2-1.3,4.5-2,7.5-2s5.2.6,7.3,1.8c2.1,1.2,3.7,2.9,4.8,5.1,1.2,2.2,1.7,5,1.7,8.2v25.5h-9.4v
    -24.1c0-2.7-.7-4.8-2.1-6.3-1.4-1.5-3.3-2.3-5.7-2.3s-3.1.4-4.4,1.1c-1.3.7-2.3,1.8-3,3.1-.7,
    1.3-1.1,3-1.1,4.9h0ZM213.1,88c-3.4,0-6.3-.5-8.7-1.4-2.4-.9-4.4-2.1-5.9-3.7-1.5-1.5-2.5-3.2
    -3.1-5.1l8.5-2.1c.4.8.9,1.6,1.7,2.3.7.8,1.7,1.4,3,1.9,1.2.5,2.8.8,4.7.8,2.7,0,4.9-.7,6.7-1.9,
    1.8-1.3,2.6-3.4,2.6-6.4v-7.6h-.5c-.5,1-1.2,2-2.1,3-.9,1-2.2,1.9-3.7,2.6-1.5.7-3.4,1-5.7,1s
    -5.9-.7-8.4-2.2c-2.5-1.5-4.5-3.6-5.9-6.5-1.5-2.9-2.2-6.5-2.2-10.9s.7-8.1,2.2-11.2c1.5-3,3.5
    -5.3,6-6.9,2.5-1.6,5.3-2.4,8.4-2.4s4.3.4,5.8,1.2c1.5.8,2.7,1.8,3.6,2.8.9,1.1,1.6,2.1,2.1,3.1h
    .5v-6.6h9.3v40.8c0,3.4-.8,6.3-2.5,8.5-1.6,2.2-3.9,3.9-6.7,5-2.8,1.1-6.1,1.7-9.7,1.7h0Z
    M213.1,64.1c2,0,3.7-.5,5.1-1.5,1.4-1,2.5-2.4,3.2-4.2.7-1.8,1.1-4,1.1-6.6s-.4-4.7-1.1-6.6c
    -.7-1.9-1.8-3.4-3.2-4.4-1.4-1-3.1-1.6-5.1-1.6s-3.9.5-5.3,1.6c-1.4,1.1-2.5,2.6-3.2,4.5-.7,
    1.9-1.1,4.1-1.1,6.5s.4,4.6,1.1,6.4c.7,1.8,1.8,3.3,3.2,4.3,1.4,1,3.1,1.5,5.2,1.5h0Z
    M261.6,55.3v-23.2h9.4v40.1h-9.2v-7.1h-.4c-.9,2.2-2.4,4.1-4.5,5.5-2.1,1.4-4.6,2.1-7.6,2.1s
    -5-.6-7-1.8c-2-1.2-3.6-2.9-4.7-5.1-1.1-2.2-1.7-5-1.7-8.2v-25.5h9.5v24.1c0,2.5.7,4.6,2.1,6.1,
    1.4,1.5,3.2,2.2,5.5,2.2s2.7-.3,4.1-1c1.3-.7,2.4-1.7,3.2-3,.8-1.4,1.3-3.1,1.3-5.1h0Z
    M285.4,18.7v53.5h-9.4V18.7h9.4ZM303.4,72.9c-2.5,0-4.8-.5-6.8-1.4s-3.6-2.3-4.8-4.1c-1.2-1.8
    -1.8-4-1.8-6.6s.4-4.1,1.3-5.6c.8-1.5,2-2.7,3.4-3.6,1.5-.9,3.1-1.6,4.9-2,1.8-.5,3.7-.8,5.6-1,
    2.4-.2,4.2-.5,5.7-.7,1.5-.2,2.5-.5,3.2-.9.7-.4,1-1.1,1-2v-.2c0-2-.6-3.5-1.8-4.6-1.2-1.1-2.8
    -1.6-5-1.6s-4.1.5-5.5,1.5c-1.3,1-2.2,2.2-2.7,3.6l-8.8-1.3c.7-2.4,1.8-4.5,3.5-6.1,1.6-1.6,3.6
    -2.9,5.9-3.7,2.3-.8,4.9-1.2,7.7-1.2s3.9.2,5.8.7,3.7,1.2,5.3,2.2c1.6,1,2.8,2.4,3.8,4.2,1,1.8,
    1.5,4,1.5,6.7v26.8h-9.1v-5.5h-.3c-.6,1.1-1.4,2.2-2.4,3.1s-2.3,1.8-3.9,2.3c-1.6.6-3.4.8-5.5.8h0Z
    M305.9,66c1.9,0,3.5-.4,4.9-1.1,1.4-.8,2.5-1.8,3.2-3,.8-1.3,1.1-2.6,1.1-4.1v-4.7c-.3.2-.8.5
    -1.5.7-.7.2-1.5.4-2.4.5-.9.2-1.7.3-2.6.4-.8.1-1.6.2-2.2.3-1.4.2-2.7.5-3.8.9-1.1.4-2,1-2.6,
    1.8-.7.8-1,1.8-1,3,0,1.8.6,3.1,1.9,3.9,1.2.9,2.8,1.4,4.8,1.4h0ZM329.1,72.1v-40.1h9.2v6.7h.4c
    .7-2.3,2-4.1,3.8-5.4,1.8-1.3,3.8-1.9,6.1-1.9s1.1,0,1.8,0c.7,0,1.2.1,1.6.2v8.7c-.4-.1-1-.3-1.9
    -.4-.8-.1-1.7-.2-2.5-.2-1.7,0-3.3.4-4.6,1.1-1.4.7-2.4,1.8-3.2,3.1-.8,1.3-1.2,2.8-1.2,4.5v23.6h
    -9.5,0ZM82.3,21.1l-2.7,42.1L54,8l28.3,13.1ZM64.6,75.6l-19.4,11.1-19.4-11.1,3.9-9.6h30.9l3.9,9.6Z
    M45.2,29l10.2,24.7h-20.3s10.2-24.7,10.2-24.7ZM10.7,63.3l-2.7-42.1,28.3-13.1L10.7,63.3Z"/>
  <path
    class="filled linear gradient"
    d="M143.3,72.1h10.3l-18.8-53.5h-12l-18.8,53.5h10.3l4.4-13.2h20.1l4.4,13.2h0ZM121.4,51.2l7.2-21.5h.4l
    7.2,21.5h-14.9,0ZM165.4,48.6v23.5h-9.4v-40.1h9v6.8h.5c.9-2.2,2.4-4,4.4-5.3,2-1.3,4.5-2,7.5-2s5.2.6,
    7.3,1.8c2.1,1.2,3.7,2.9,4.8,5.1,1.2,2.2,1.7,5,1.7,8.2v25.5h-9.4v-24.1c0-2.7-.7-4.8-2.1-6.3-1.4-1.5
    -3.3-2.3-5.7-2.3s-3.1.4-4.4,1.1c-1.3.7-2.3,1.8-3,3.1-.7,1.3-1.1,3-1.1,4.9h0ZM213.1,88c-3.4,0-6.3
    -.5-8.7-1.4-2.4-.9-4.4-2.1-5.9-3.7-1.5-1.5-2.5-3.2-3.1-5.1l8.5-2.1c.4.8.9,1.6,1.7,2.3.7.8,1.7,1.4,
    3,1.9,1.2.5,2.8.8,4.7.8,2.7,0,4.9-.7,6.7-1.9,1.8-1.3,2.6-3.4,2.6-6.4v-7.6h-.5c-.5,1-1.2,2-2.1,3-.9,
    1-2.2,1.9-3.7,2.6-1.5.7-3.4,1-5.7,1s-5.9-.7-8.4-2.2c-2.5-1.5-4.5-3.6-5.9-6.5-1.5-2.9-2.2-6.5-2.2-10.9s
    .7-8.1,2.2-11.2c1.5-3,3.5-5.3,6-6.9,2.5-1.6,5.3-2.4,8.4-2.4s4.3.4,5.8,1.2c1.5.8,2.7,1.8,3.6,2.8.9,
    1.1,1.6,2.1,2.1,3.1h.5v-6.6h9.3v40.8c0,3.4-.8,6.3-2.5,8.5-1.6,2.2-3.9,3.9-6.7,5-2.8,1.1-6.1,1.7-9.7,
    1.7h0ZM213.1,64.1c2,0,3.7-.5,5.1-1.5,1.4-1,2.5-2.4,3.2-4.2.7-1.8,1.1-4,1.1-6.6s-.4-4.7-1.1-6.6c-.7
    -1.9-1.8-3.4-3.2-4.4-1.4-1-3.1-1.6-5.1-1.6s-3.9.5-5.3,1.6c-1.4,1.1-2.5,2.6-3.2,4.5-.7,1.9-1.1,4.1-1.1,
    6.5s.4,4.6,1.1,6.4c.7,1.8,1.8,3.3,3.2,4.3,1.4,1,3.1,1.5,5.2,1.5h0ZM261.6,55.3v-23.2h9.4v40.1h-9.2v
    -7.1h-.4c-.9,2.2-2.4,4.1-4.5,5.5-2.1,1.4-4.6,2.1-7.6,2.1s-5-.6-7-1.8c-2-1.2-3.6-2.9-4.7-5.1-1.1-2.2
    -1.7-5-1.7-8.2v-25.5h9.5v24.1c0,2.5.7,4.6,2.1,6.1,1.4,1.5,3.2,2.2,5.5,2.2s2.7-.3,4.1-1c1.3-.7,2.4
    -1.7,3.2-3,.8-1.4,1.3-3.1,1.3-5.1h0ZM285.4,18.7v53.5h-9.4V18.7h9.4ZM303.4,72.9c-2.5,0-4.8-.5-6.8
    -1.4s-3.6-2.3-4.8-4.1c-1.2-1.8-1.8-4-1.8-6.6s.4-4.1,1.3-5.6c.8-1.5,2-2.7,3.4-3.6,1.5-.9,3.1-1.6,
    4.9-2,1.8-.5,3.7-.8,5.6-1,2.4-.2,4.2-.5,5.7-.7,1.5-.2,2.5-.5,3.2-.9.7-.4,1-1.1,1-2v-.2c0-2-.6-3.5
    -1.8-4.6-1.2-1.1-2.8-1.6-5-1.6s-4.1.5-5.5,1.5c-1.3,1-2.2,2.2-2.7,3.6l-8.8-1.3c.7-2.4,1.8-4.5,3.5
    -6.1,1.6-1.6,3.6-2.9,5.9-3.7,2.3-.8,4.9-1.2,7.7-1.2s3.9.2,5.8.7,3.7,1.2,5.3,2.2c1.6,1,2.8,2.4,
    3.8,4.2,1,1.8,1.5,4,1.5,6.7v26.8h-9.1v-5.5h-.3c-.6,1.1-1.4,2.2-2.4,3.1s-2.3,1.8-3.9,2.3c-1.6.6
    -3.4.8-5.5.8h0ZM305.9,66c1.9,0,3.5-.4,4.9-1.1,1.4-.8,2.5-1.8,3.2-3,.8-1.3,1.1-2.6,1.1-4.1v-4.7c
    -.3.2-.8.5-1.5.7-.7.2-1.5.4-2.4.5-.9.2-1.7.3-2.6.4-.8.1-1.6.2-2.2.3-1.4.2-2.7.5-3.8.9-1.1.4-2,
    1-2.6,1.8-.7.8-1,1.8-1,3,0,1.8.6,3.1,1.9,3.9,1.2.9,2.8,1.4,4.8,1.4h0ZM329.1,72.1v-40.1h9.2v6.7h.4c
    .7-2.3,2-4.1,3.8-5.4,1.8-1.3,3.8-1.9,6.1-1.9s1.1,0,1.8,0c.7,0,1.2.1,1.6.2v8.7c-.4-.1-1-.3-1.9-.4
    -.8-.1-1.7-.2-2.5-.2-1.7,0-3.3.4-4.6,1.1-1.4.7-2.4,1.8-3.2,3.1-.8,1.3-1.2,2.8-1.2,4.5v23.6h-9.5,0Z
    M82.3,21.1l-2.7,42.1L54,8l28.3,13.1ZM64.6,75.6l-19.4,11.1-19.4-11.1,3.9-9.6h30.9l3.9,9.6ZM45.2,29l
    10.2,24.7h-20.3s10.2-24.7,10.2-24.7ZM10.7,63.3l-2.7-42.1,28.3-13.1L10.7,63.3Z"/>
</svg>
