<?xml version="1.0" encoding="UTF-8"?>
<svg
  id="AzureVectorLogo"
  xmlns="http://www.w3.org/2000/svg"
  viewBox="0 0 256 256">
  <defs>
    <style>
      .filled.light.azure.gradient
      {
        fill: url(#LightAzureLinearGradient);
      }

      .filled.mid.azure.gradient {
        fill: url(#MidAzureLinearGradient);
      }

      .filled.azure {
        fill: #0078d4;
      }

      .filled.dark.azure.gradient
      {
        fill: url(#DarkAzureLinearGradient);
      }
    </style>
    <linearGradient
      id="DarkAzureLinearGradient"
      x1="-986.03" y1="-108.13" x2="-1030.08" y2="22.02"
      gradientTransform="translate(1655.5 207.06) scale(1.56)"
      gradientUnits="userSpaceOnUse">
      <stop offset="0" stop-color="#114a8b"/>
      <stop offset="1" stop-color="#0669bc"/>
    </linearGradient>
    <linearGradient
      id="MidAzureLinearGradient"
      x1="-972.27" y1="-47.48" x2="-982.46" y2="-44.03"
      gradientTransform="translate(1655.5 207.06) scale(1.56)"
      gradientUnits="userSpaceOnUse">
      <stop offset="0" stop-color="#000" stop-opacity=".3"/>
      <stop offset=".07" stop-color="#000" stop-opacity=".2"/>
      <stop offset=".32" stop-color="#000" stop-opacity=".1"/>
      <stop offset=".62" stop-color="#000" stop-opacity=".05"/>
      <stop offset="1" stop-color="#000" stop-opacity="0"/>
    </linearGradient>
    <linearGradient
      id="LightAzureLinearGradient"
      x1="-977.55" y1="-112.04" x2="-929.19" y2="16.8"
      gradientTransform="translate(1655.5 207.06) scale(1.56)"
      gradientUnits="userSpaceOnUse">
      <stop offset="0" stop-color="#3ccbf4"/>
      <stop offset="1" stop-color="#2892df"/>
    </linearGradient>
  </defs>
  <path
    class="filled dark azure gradient"
    d="M90.68,22.47h66.28l-68.81,203.87c-1.45,4.3-5.48,7.19-10.01,7.19H26.55c-5.83,0-10.55-4.72-10.55
    -10.55,0-1.15.19-2.29.55-3.37L80.66,29.66c1.45-4.3,5.48-7.19,10.01-7.19h0Z"/>
  <path
    class="filled azure"
    d="M187,159.21h-105.11c-2.69,0-4.87,2.17-4.87,4.86,0,1.35.56,2.64,1.55,3.56l67.54,63.04c1.97,1.83,
    4.56,2.85,7.24,2.85h59.52l-25.87-74.32Z"/>
  <path
    class="filled mid azure gradient"
    d="M90.68,22.47c-4.59-.02-8.66,2.95-10.04,7.33L16.63,219.43c-1.97,5.48.88,11.51,6.36,13.48,1.15.41,
    2.36.62,3.59.62h52.92c4.01-.72,7.33-3.54,8.68-7.38l12.76-37.62,45.59,42.53c1.91,1.58,4.31,2.45,6.79,
    2.47h59.3l-26.01-74.32-75.81.02L157.2,22.47h-66.52Z"/>
  <path
    class="filled light azure gradient"
    d="M175.34,29.65c-1.45-4.29-5.47-7.18-10-7.18h-73.87c4.53,0,8.55,2.89,10,7.18l64.11,189.96c1.86,5.52
    -1.1,11.51-6.62,13.38-1.09.37-2.23.55-3.37.55h73.87c5.83,0,10.55-4.73,10.55-10.56,0-1.15-.19-2.29-.55
    -3.37L175.34,29.65Z"/>
</svg>
