<?xml version="1.0" encoding="UTF-8"?>
<svg id="Layer_1" xmlns="http://www.w3.org/2000/svg" version="1.1" viewBox="0 0 256 256">
  <!-- Generator: Adobe Illustrator 29.5.1, SVG Export Plug-In . SVG Version: 2.1.0 Build 141)  -->
  <defs>
    <style>
      .st0 {
        fill: #0091e2;
      }
    </style>
  </defs>
  <path class="st0" d="M237.82,108.67c-.62-.51-6.23-4.72-18.28-4.72-3.12,0-6.34.31-9.45.82-2.29-15.69-15.48-23.28-16-23.69l-3.22-1.85-2.08,2.97c-2.6,4-4.57,8.51-5.71,13.13-2.18,8.92-.83,17.33,3.74,24.51-5.51,3.08-14.44,3.8-16.31,3.9H22.97c-3.84,0-6.96,3.08-6.96,6.87-.21,12.72,1.97,25.44,6.44,37.44,5.09,13.13,12.67,22.87,22.44,28.82,11.01,6.67,28.99,10.46,49.24,10.46,9.14,0,18.28-.82,27.32-2.46,12.57-2.26,24.62-6.56,35.74-12.82,9.11-5.21,17.32-11.86,24.31-19.69,11.74-13.03,18.7-27.59,23.79-40.52h2.08c12.78,0,20.67-5.03,25.04-9.33,2.91-2.67,5.09-5.95,6.65-9.64l.94-2.67-2.18-1.54Z"/>
  <path class="st0" d="M36.69,119.54h19.74c.94,0,1.77-.72,1.77-1.74v-17.44c0-.92-.73-1.74-1.77-1.74h-19.74c-.93,0-1.77.72-1.77,1.74v17.44c.1,1.03.83,1.74,1.77,1.74h0ZM63.91,119.54h19.74c.93,0,1.77-.72,1.77-1.74v-17.44c0-.92-.73-1.74-1.77-1.74h-19.74c-.93,0-1.77.72-1.77,1.74v17.44c.1,1.03.83,1.74,1.77,1.74M91.65,119.54h19.74c.93,0,1.77-.72,1.77-1.74v-17.44c0-.92-.73-1.74-1.77-1.74h-19.74c-.93,0-1.77.72-1.77,1.74v17.44c0,1.03.73,1.74,1.77,1.74ZM118.97,119.54h19.74c.93,0,1.77-.72,1.77-1.74v-17.44c0-.92-.73-1.74-1.77-1.74h-19.74c-.93,0-1.77.72-1.77,1.74v17.44c0,1.03.83,1.74,1.77,1.74ZM63.91,94.61h19.74c.93,0,1.77-.82,1.77-1.74v-17.44c0-.92-.73-1.74-1.77-1.74h-19.74c-.93,0-1.77.72-1.77,1.74v17.44c.1.92.83,1.74,1.77,1.74M91.65,94.61h19.74c.93,0,1.77-.82,1.77-1.74v-17.44c0-.92-.73-1.74-1.77-1.74h-19.74c-.93,0-1.77.72-1.77,1.74v17.44c0,.92.73,1.74,1.77,1.74M118.97,94.61h19.74c.93,0,1.77-.82,1.77-1.74v-17.44c0-.92-.83-1.74-1.77-1.74h-19.74c-.93,0-1.77.72-1.77,1.74v17.44c0,.92.83,1.74,1.77,1.74M118.97,69.59h19.74c.93,0,1.77-.72,1.77-1.74v-17.44c0-.92-.83-1.74-1.77-1.74h-19.74c-.93,0-1.77.72-1.77,1.74v17.44c0,.92.83,1.74,1.77,1.74M146.5,119.54h19.74c.93,0,1.77-.72,1.77-1.74v-17.44c0-.92-.73-1.74-1.77-1.74h-19.74c-.94,0-1.77.72-1.77,1.74v17.44c.1,1.03.83,1.74,1.77,1.74"/>
</svg>