<?xml version="1.0" encoding="utf-8"?>
<svg
  id="ExertiveLateralLogo"
  xmlns="http://www.w3.org/2000/svg"
  x="0" y="0px"
	viewBox="0 0 1024 96">
<style type="text/css">
	.filled.graphite { fill:#484848; }
</style>
  <g>
    <rect class="filled graphite" x="22" y="41.9" width="55.2" height="12.3"/>
    <rect class="filled graphite" x="138.5" y="41.9" width="55.2" height="12.3"/>
    <path class="filled graphite" d="M138.5,72.5"/>
    <path class="filled graphite" d="M77.2,23.5"/>
    <path
      class="filled graphite"
       d="M193.6,66.4v12.3h-55.2h0h-4.6l-56.7-49H22V17.3h55.2h4.6l56.7,49H193.6z"/>
    <polyline
      class="filled graphite"
      points="81.8,78.7 77.2,78.7 22,78.7 22,66.4 77.2,66.4 133.9,17.3 138.5,17.3 193.6,17.3 193.6,29.6
      138.5,29.6 81.8,78.7 "/>
  </g>
  <g>
    <path class="filled graphite" d="M255.5,46.1v4.5h-26.8v6H256v4.5h-32.8V35.8H256v4.5h-27.3v5.7H255.5z"/>
    <path
      class="filled graphite"
      d="M261.4,61L277,48.4l-15.3-12.5v-0.1h7.9l11.8,9.9l12-9.9h7.6v0.1l-15.3,12.4L301.2,61v0.1h-7.9l-12.1-10.1
      L269,61.1h-7.6V61z"/>
    <path class="filled graphite" d="M339.9,46.1v4.5h-26.8v6h27.3v4.5h-32.8V35.8h32.8v4.5h-27.3v5.7H339.9z"/>
    <path
      class="filled graphite"
      d="M370.1,35.8c7.1,0,9.3,1,11.1,2.8c1.4,1.4,1.9,3.4,1.9,5.6c0,2.1-0.5,4.1-2.1,5.6c-1.4,1.4-3.5,2.5-8.3,2.9
      l13.6,8.3v0.1h-8.4l-13.4-8.4h-10v8.4h-5.6V35.8H370.1z M354.5,48.3h15.6c3.9,0,5.6-0.5,6.5-1.4c0.6-0.6,0.9-1.3,
      0.9-2.6c0-1.2-0.3-2-1-2.7c-0.9-0.9-2.3-1.3-6.4-1.3h-15.7V48.3z"/>
    <path class="filled graphite" d="M426.1,40.3H410v20.7h-5.6V40.3h-16.1v-4.5h37.9V40.3z"/>
    <path class="filled graphite" d="M433.2,61.1V35.8h5.6v25.3H433.2z"/>
    <path class="filled graphite" d="M469.2,61.2h-7.2l-17.2-25.4h6.5l14.4,21.8l14.5-21.8h6.2L469.2,61.2z"/>
    <path class="filled graphite" d="M524.4,46.1v4.5h-26.8v6h27.3v4.5H492V35.8h32.8v4.5h-27.3v5.7H524.4z"/>
    <path class="filled graphite" d="M584.7,40.3h-16.1v20.7H563V40.3h-16.1v-4.5h37.9V40.3z"/>
    <path class="filled graphite" d="M623.8,46.1v4.5H597v6h27.3v4.5h-32.8V35.8h32.8v4.5H597v5.7H623.8z"/>
    <path
      class="filled graphite"
      d="M634.4,57.2c-2.2-2.2-3.3-5.3-3.3-8.7c0-3.5,1.1-6.5,3.3-8.7c2.4-2.4,7.2-4.5,16.1-4.5c7.1,0,12.4,1.5,15.5,
      3.2v5.2c-3.6-2.1-9.3-3.9-15.5-3.9c-6.2,0-10.1,1.3-11.8,2.9c-1.3,1.3-2,3.2-2,5.8c0,2.6,0.7,4.4,2.1,5.7c1.7,
      1.7,5.5,3,11.7,3c6.2,0,11.9-1.6,15.5-3.6v4.9c-3.1,1.7-8.4,3.2-15.5,3.2C641.6,61.6,636.8,59.6,634.4,57.2z"/>
    <path class="filled graphite" d="M705.4,46V35.8h5.6v25.3h-5.6V50.6h-25.3v10.5h-5.6V35.8h5.6V46H705.4z"/>
    <path class="filled graphite" d="M751.5,56.2V35.8h5.6v25.3h-7.8l-23.1-20.8v20.8h-5.6V35.8h8.2L751.5,56.2z"/>
    <path
      class="filled graphite"
      d="M801.5,39.6c2.2,2.2,3.3,5,3.3,8.8c0,3.8-1,6.6-3.3,8.8c-2.4,2.4-7.2,4.5-16.6,4.5c-9.5,0-14.2-2.1-16.6-4.5
      c-2.3-2.3-3.3-5.1-3.3-8.9c0-3.8,1-6.6,3.3-8.8c2.5-2.5,7.2-4.5,16.6-4.5C794.3,35.1,799.1,37.2,801.5,39.6z
      M772.7,42.5c-1.4,1.4-2.1,3.1-2.1,5.9c0,2.9,0.8,4.4,2.2,5.9c1.6,1.6,5.2,3.1,12.1,3.1c6.8,0,10.5-1.4,12.2-3.1
      c1.3-1.3,2.1-3,2.1-5.9c0-2.9-0.8-4.5-2.2-5.8c-1.7-1.7-5.3-3.1-12.1-3.1C778,39.5,774.4,40.9,772.7,42.5z"/>
    <path class="filled graphite" d="M843.7,56.4v4.6h-31V35.8h5.6v20.7H843.7z"/>
    <path
      class="filled graphite"
      d="M884.3,39.6c2.2,2.2,3.3,5,3.3,8.8c0,3.8-1,6.6-3.3,8.8c-2.4,2.4-7.2,4.5-16.6,4.5c-9.5,0-14.2-2.1-16.6-4.5
      c-2.3-2.3-3.3-5.1-3.3-8.9c0-3.8,1-6.6,3.3-8.8c2.5-2.5,7.2-4.5,16.6-4.5C877.1,35.1,881.9,37.2,884.3,39.6z
      M855.6,42.5c-1.4,1.4-2.1,3.1-2.1,5.9c0,2.9,0.8,4.4,2.2,5.9c1.6,1.6,5.2,3.1,12.1,3.1c6.8,0,10.5-1.4,12.2-3.1
      c1.3-1.3,2.1-3,2.1-5.9c0-2.9-0.8-4.5-2.2-5.8c-1.7-1.7-5.3-3.1-12.1-3.1C860.9,39.5,857.2,40.9,855.6,42.5z"/>
    <path
      class="filled graphite"
      d="M932.3,47.1V50c0,3.5-0.9,5.8-2.7,7.7c-2.3,2.3-6.7,4-15.7,4c-10.3,0-14.4-2.1-16.8-4.5c-2.1-2.1-3.3-5-3.3-8.7
      c0-3.5,1.1-6.5,3.3-8.7c2.4-2.4,7.1-4.5,16.8-4.5c7.7,0,13.6,1.3,16.6,2.9v5.1c-3.6-2-9.7-3.5-16.6-3.5c-7,0-10.7,
      1.3-12.4,2.9c-1.3,1.3-2,3.2-2,5.8c0,2.7,0.8,4.5,2,5.8c1.7,1.7,4.7,3,12.4,3c6.1,0,9.9-1.1,11.3-2.5c1-1,1.3-2,
      1.3-3.2H911v-4.5H932.3z"/>
    <path
      class="filled graphite"
      d="M967.7,35.8h7.3v0.1l-17.2,14.9v10.3h-5.6V50.9l-17.2-15v-0.1h7.5l12.6,11L967.7,35.8z"/>
    <path
      class="filled graphite"
      d="M999.9,49.5c-1.7,1.7-4.8,3-10.2,3c-5.3,0-8.5-1.3-10.2-3c-1.5-1.5-2.1-3.6-2.1-6.1c0-2.6,0.6-4.7,2.1-6.2
      c1.7-1.7,4.8-3,10.2-3c5.3,0,8.5,1.3,10.2,3c1.5,1.5,2.1,3.5,2.1,6.1C1002,45.8,1001.4,48,999.9,49.5z M980.8,
      48.5c1.4,1.4,3.9,2.4,8.9,2.4c5.1,0,7.5-1,8.9-2.4c1.2-1.2,1.7-2.9,1.7-5.2c0-2.2-0.5-4-1.7-5.2c-1.4-1.4-3.9
      -2.4-8.9-2.4c-5.1,0-7.5,1-8.9,2.4c-1.2,1.2-1.7,2.9-1.7,5.2C979,45.6,979.6,47.4,980.8,48.5z M995,44.1c-0.4,
      0.4-1,0.8-2.2,0.9l3.6,2.4v0.1h-3.4l-3.4-2.3h-3.2v2.3h-2.5V39h6.8c2.7,0,3.6,0.3,4.4,1.1c0.5,0.5,0.7,1.2,0.7,
      1.9C995.7,42.8,995.5,43.7,995,44.1z M992.9,41.5c-0.3-0.3-0.9-0.4-2.3-0.4h-4.2v2.2h4.2c1.3,0,2-0.1,2.3-0.4
      c0.3-0.3,0.3-0.5,0.3-0.7C993.2,42,993.1,41.8,992.9,41.5z"/>
  </g>
</svg>
