<?xml version="1.0" encoding="UTF-8"?>
<svg
  id="GitHubVectorLogo"
  xmlns="http://www.w3.org/2000/svg"
  viewBox="0 0 256 256">
  <defs>
    <style>
      .filled {
        fill: currentColor;
        fill-rule: evenodd;
        stroke: none;
      }
    </style>
  </defs>
  <path
    class="filled"
    d="M128.09,17.87c-61.98,0-112.09,50.48-112.09,112.93,0,49.92,32.11,92.17,76.65,107.13,5.57,1.12,
      7.61-2.43,7.61-5.42,0-2.62-.18-11.59-.18-20.94-31.18,6.73-37.67-13.46-37.67-13.46-5.01-13.09
      -12.44-16.45-12.44-16.45-10.21-6.92.74-6.92.74-6.92,11.32.75,17.26,11.59,17.26,11.59,10.02,17.2,
      26.17,12.34,32.66,9.35.93-7.29,3.9-12.34,7.05-15.14-24.87-2.62-51.04-12.34-51.04-55.72,0-12.34,
      4.45-22.44,11.5-30.29-1.11-2.8-5.01-14.4,1.12-29.91,0,0,9.46-2.99,30.81,11.59,9.14-2.47,18.56
      -3.73,28.02-3.74,9.46,0,19.11,1.31,28.02,3.74,21.34-14.58,30.81-11.59,30.81-11.59,6.13,15.52,
      2.23,27.11,1.11,29.91,7.24,7.85,11.51,17.95,11.51,30.29,0,43.38-26.17,52.91-51.22,55.72,4.08,
      3.55,7.61,10.28,7.61,20.94,0,15.14-.18,27.3-.18,31.03,0,2.99,2.04,6.55,7.61,5.42,44.54-14.96,
      76.65-57.21,76.65-107.13.18-62.45-50.11-112.93-111.91-112.93Z"/>
</svg>
