<?xml version="1.0" encoding="UTF-8"?>
<svg
  id="AppleIconImage"
  xmlns="http://www.w3.org/2000/svg"
  width="512" height="512"
  viewBox="0 0 512 512">
  <defs>
    <style>
      .filled.charcoal
      {
        fill: #242424;
        stroke: none;
      }
    </style>
  </defs>
  <path
    class="filled charcoal"
    d="M419.4,189.4c-2.5,2-46.4,26.7-46.4,81.7s55.9,86.1,57.5,86.7c-.3,1.3-8.8,30.8-29.5,60.8-18.3,
      26.4-37.5,52.8-66.6,52.8s-36.6-17-70.3-17-44.5,17.5-71.1,17.5-45.3-24.5-66.6-54.5c-24.7-35.3
      -44.8-90.1-44.8-142,0-83.4,54.2-127.6,107.6-127.6s52,18.6,69.8,18.6,43.3-19.7,75.6-19.7,56.1,
      1.1,85,42.5h0ZM319,111.6c13.3-15.8,22.8-37.8,22.8-59.8s-.3-6.2-.8-8.6c-21.7.8-47.5,14.5-63.1,
      32.5-12.2,13.9-23.7,35.8-23.7,58.1s.5,6.7.8,7.8c1.3.3,3.6.5,5.8.5,19.5,0,44-13,58.1-30.6h0Z"/>
</svg>
