<?xml version="1.0" encoding="UTF-8"?>
<svg
    id="EdgeBrowserIconImage"
    xmlns="http://www.w3.org/2000/svg"
    viewBox="0 0 480 480">
  <defs>
    <style>
      .cls-1 {
        fill: url(#linear-gradient-2);
      }

      .cls-2 {
        fill: url(#linear-gradient-3);
      }

      .cls-3 {
        fill: url(#linear-gradient);
      }
    </style>
    <linearGradient id="linear-gradient" x1="129.256031" y1="-840.072987" x2="444.270635" y2="-840.072987" gradientTransform="translate(0 -510.661349) scale(1 -1)" gradientUnits="userSpaceOnUse">
      <stop offset="0" stop-color="#1b3c6c"/>
      <stop offset="1" stop-color="#105095"/>
    </linearGradient>
    <linearGradient id="linear-gradient-2" x1="124.186285" y1="-643.56004" x2="199.05629" y2="-987.050062" gradientTransform="translate(0 -510.661349) scale(1 -1)" gradientUnits="userSpaceOnUse">
      <stop offset="0" stop-color="#026492"/>
      <stop offset=".4" stop-color="#3183c5"/>
      <stop offset="1" stop-color="#026492"/>
    </linearGradient>
    <linearGradient id="linear-gradient-3" x1="98.160118" y1="-595.301579" x2="376.080092" y2="-759.701572" gradientTransform="translate(0 -510.661349) scale(1 -1)" gradientUnits="userSpaceOnUse">
      <stop offset="0" stop-color="#32c2dc"/>
      <stop offset="1" stop-color="#62bd5a"/>
    </linearGradient>
  </defs>
  <g id="Layer_1" data-name="Layer 1">
    <path class="cls-3" d="M294.290251,473.830001c62.459991-14.450012,115.579987-53.279999,148.800018-105.920013,4.049988-6.420013-3.089996-14.109985-9.790009-10.519989-25.540009,13.700012-55.850006,21.639984-88.369995,21.639984-90.119995,0-163.360001-60.959991-164.869995-136.649994-.509995-25.580002,14.75-48.190002,36.899994-57.639999h-.020004c-136.149994,47.650009-116.269997,298.589981,77.340012,289.079971l.009979.01004Z"/>
  </g>
  <g id="Layer_3" data-name="Layer 3">
    <path class="cls-1" d="M296.150237,218.950011c-9.179993-35.860001-39.73999-104.970001-139.020004-104.970001C4.470243,113.990012.010243,237.760009.010243,237.760009c-1.22,133.570023,106.699999,242.240005,239.99,242.240005,18.670013,0,36.839996-2.130005,54.290009-6.170013-193.610001,9.51001-213.490005-241.440002-77.339996-289.100006h.020004c6.889999-2.929993,14.430008-4.610001,22.380005-4.690002,25.990005-.279999,48.210007,15.990005,56.810013,38.910004l-.01004.000015Z"/>
  </g>
  <g id="Layer_2" data-name="Layer 2">
    <path class="cls-2" d="M292.120238,312.580001c16.190002,5.910004,34.049988,9.179993,52.809998,9.179993,73.529999,0,133.140015-50.26001,133.149994-112.26001C478.080229,86.580016,363.440245,1.110014,242.220244.010014,110.070243-1.189986,1.210243,105.610015.010243,237.760009c0,0,4.46-123.779999,157.11999-123.779999,99.279984,0,129.849991,69.099991,139.020004,104.970001,2.459991,6.550003,3.809998,13.639999,3.809998,21.050003,0,15.529999-5.910004,29.690002-15.600006,40.339996-9.600006,10.549988-5.649994,27.350006,7.76001,32.23999Z"/>
  </g>
</svg>
