<?xml version="1.0" encoding="UTF-8"?>
<svg id="Layer_1" xmlns="http://www.w3.org/2000/svg" width="512" height="512" version="1.1" xmlns:xlink="http://www.w3.org/1999/xlink" viewBox="0 0 512 512">
  <!-- Generator: Adobe Illustrator 29.2.1, SVG Export Plug-In . SVG Version: 2.1.0 Build 116)  -->
  <defs>
    <style>
      .st0 {
        fill: url(#linear-gradient1);
      }

      .st1 {
        fill: url(#radial-gradient);
      }

      .st2 {
        fill: url(#radial-gradient5);
      }

      .st3 {
        fill: url(#radial-gradient1);
      }

      .st4 {
        fill: url(#radial-gradient7);
      }

      .st5 {
        fill: url(#radial-gradient8);
      }

      .st6 {
        fill: url(#radial-gradient6);
      }

      .st7 {
        fill: url(#radial-gradient2);
      }

      .st8 {
        fill: url(#radial-gradient4);
      }

      .st9 {
        fill: url(#radial-gradient3);
      }

      .st10 {
        fill: url(#radial-gradient9);
      }

      .st11 {
        fill: url(#linear-gradient);
      }
    </style>
    <linearGradient id="linear-gradient" x1="-467.2" y1="468.2" x2="-467.9" y2="467.4" gradientTransform="translate(224668.7 232306.3) scale(480 -496)" gradientUnits="userSpaceOnUse">
      <stop offset="0" stop-color="#fff44f"/>
      <stop offset=".4" stop-color="#ff980e"/>
      <stop offset=".5" stop-color="#ff3647"/>
      <stop offset=".7" stop-color="#e31587"/>
    </linearGradient>
    <radialGradient id="radial-gradient" cx="-466.9" cy="467.9" fx="-466.9" fy="467.9" r="1.2" gradientTransform="translate(178993.5 182078.8) scale(382.4 -388.9)" gradientUnits="userSpaceOnUse">
      <stop offset=".1" stop-color="#ffbd4f"/>
      <stop offset=".3" stop-color="#ff980e"/>
      <stop offset=".5" stop-color="#ff3750"/>
      <stop offset=".8" stop-color="#eb0878"/>
      <stop offset=".9" stop-color="#e50080"/>
    </radialGradient>
    <radialGradient id="radial-gradient1" cx="-467.3" cy="467.4" fx="-467.3" fy="467.4" r="1.2" gradientTransform="translate(183434.5 182028.7) scale(392 -388.9)" gradientUnits="userSpaceOnUse">
      <stop offset=".3" stop-color="#960e18"/>
      <stop offset=".3" stop-color="#b11927" stop-opacity=".7"/>
      <stop offset=".4" stop-color="#db293d" stop-opacity=".3"/>
      <stop offset=".5" stop-color="#f5334b" stop-opacity="0"/>
      <stop offset=".5" stop-color="#ff3750" stop-opacity="0"/>
    </radialGradient>
    <radialGradient id="radial-gradient2" cx="-464.5" cy="465.4" fx="-464.5" fy="465.4" r="1.4" gradientTransform="translate(53605.3 90665) scale(114.8 -194.8)" gradientUnits="userSpaceOnUse">
      <stop offset=".1" stop-color="#fff44f"/>
      <stop offset=".5" stop-color="#ff980e"/>
    </radialGradient>
    <radialGradient id="radial-gradient3" cx="-466.6" cy="465" fx="-466.6" fy="465" r="1" gradientTransform="translate(99395 108755.4) scale(212.6 -233)" gradientUnits="userSpaceOnUse">
      <stop offset=".3" stop-color="#3a8ee6"/>
      <stop offset=".7" stop-color="#9059ff"/>
      <stop offset="1" stop-color="#c139e6"/>
    </radialGradient>
    <radialGradient id="radial-gradient4" cx="-466" cy="465.8" fx="-466" fy="465.8" r=".6" gradientTransform="translate(89423.7 108755.4) scale(191.3 -233)" gradientUnits="userSpaceOnUse">
      <stop offset=".2" stop-color="#9059ff" stop-opacity="0"/>
      <stop offset="1" stop-color="#6e008b" stop-opacity=".6"/>
    </radialGradient>
    <radialGradient id="radial-gradient5" cx="-458.9" cy="454.4" fx="-458.9" fy="454.4" r="2.8" gradientTransform="translate(26986 26630) scale(58.3 -58.5)" gradientUnits="userSpaceOnUse">
      <stop offset="0" stop-color="#ffe226"/>
      <stop offset=".8" stop-color="#ff7139"/>
    </radialGradient>
    <radialGradient id="radial-gradient6" cx="-467.1" cy="468.1" fx="-467.1" fy="468.1" r="1.7" gradientTransform="translate(209808.2 176107) scale(448.3 -376.3)" gradientUnits="userSpaceOnUse">
      <stop offset=".1" stop-color="#fff44f"/>
      <stop offset=".5" stop-color="#ff980e"/>
      <stop offset=".7" stop-color="#ff3647"/>
      <stop offset=".9" stop-color="#e31587"/>
    </radialGradient>
    <radialGradient id="radial-gradient7" cx="-462" cy="472.9" fx="-462" fy="472.9" r="3.4" gradientTransform="translate(-64341.5 77353.9) rotate(84) scale(152.1 -153.2) skewX(0)" gradientUnits="userSpaceOnUse">
      <stop offset="0" stop-color="#fff44f"/>
      <stop offset=".3" stop-color="#ff980e"/>
      <stop offset=".6" stop-color="#ff3647"/>
      <stop offset=".7" stop-color="#e31587"/>
    </radialGradient>
    <radialGradient id="radial-gradient8" cx="-466.4" cy="465.6" fx="-466.4" fy="465.6" r="2.3" gradientTransform="translate(90884.6 89003.8) scale(194.3 -190.9)" gradientUnits="userSpaceOnUse">
      <stop offset=".1" stop-color="#fff44f"/>
      <stop offset=".5" stop-color="#ff980e"/>
      <stop offset=".7" stop-color="#ff3647"/>
      <stop offset=".9" stop-color="#e31587"/>
    </radialGradient>
    <radialGradient id="radial-gradient9" cx="-464.8" cy="464.6" fx="-464.8" fy="464.6" r="3" gradientTransform="translate(83027.7 74059.1) scale(177.9 -159.1)" gradientUnits="userSpaceOnUse">
      <stop offset="0" stop-color="#fff44f"/>
      <stop offset=".6" stop-color="#ff980e"/>
    </radialGradient>
    <linearGradient id="linear-gradient1" x1="-467.2" y1="468.2" x2="-467.8" y2="467.5" gradientTransform="translate(224666.8 232306.3) scale(480 -496)" gradientUnits="userSpaceOnUse">
      <stop offset=".2" stop-color="#fff44f" stop-opacity=".8"/>
      <stop offset=".6" stop-color="#fff44f" stop-opacity="0"/>
    </linearGradient>
  </defs>
  <path class="st11" d="M471.5,177c-10.1-24.3-30.6-50.6-46.7-58.9,13.1,25.7,20.7,51.4,23.6,70.6,0,0,0,.1,0,.4-26.3-65.5-70.9-92-107.3-149.5-1.8-2.9-3.7-5.8-5.5-8.9-.9-1.6-1.8-3.2-2.6-4.8-1.5-2.9-2.7-6-3.5-9.2,0-.3-.2-.6-.5-.6-.1,0-.3,0-.4,0,0,0,0,0-.1,0,0,0-.1,0-.2,0,0,0,0-.1,0-.1-58.4,34.2-78.2,97.5-80.1,129.2-23.3,1.6-45.6,10.2-64,24.7-1.9-1.6-3.9-3.1-6-4.5-5.3-18.5-5.5-38.2-.7-56.8-23.9,10.9-42.5,28.1-56,43.3h-.1c-9.2-11.7-8.6-50.2-8-58.2-.1-.5-6.9,3.5-7.8,4.1-8.1,5.8-15.7,12.3-22.7,19.5-8,8.1-15.2,16.8-21.7,26,0,0,0,0,0,0,0,0,0,0,0,0-15,21.2-25.6,45.1-31.2,70.5-.1.5-.2,1-.3,1.5-.4,2-2,12.3-2.3,14.5,0,.2,0,.3,0,.5-2,10.6-3.3,21.3-3.8,32.1,0,.4,0,.8,0,1.2,0,128.4,104.1,232.5,232.6,232.5s210.5-83.5,229.2-193.2c.4-3,.7-6,1.1-9,4.6-39.9-.5-81.8-15.1-116.9ZM203.5,359c1.1.5,2.1,1.1,3.2,1.6,0,0,.1,0,.2,0-1.1-.5-2.3-1.1-3.4-1.7ZM448.5,189.2v-.2c0,0,0,.2,0,.3h0Z"/>
  <path class="st1" d="M471.5,177c-10.1-24.3-30.6-50.6-46.7-58.9,13.1,25.7,20.7,51.4,23.6,70.6,0,0,0,0,0,.2,0,0,0,.2,0,.3,21.9,59.5,10,120-7.2,156.9-26.7,57.2-91.2,115.8-192.2,113-109.1-3.1-205.2-84.1-223.2-190.1-3.3-16.7,0-25.2,1.6-38.8-2,10.5-2.8,13.5-3.8,32.1,0,.4,0,.8,0,1.2,0,128.4,104.1,232.5,232.6,232.5s210.5-83.5,229.2-193.2c.4-3,.7-6,1.1-9,4.6-39.9-.5-81.8-15.1-116.9Z"/>
  <path class="st3" d="M471.5,177c-10.1-24.3-30.6-50.6-46.7-58.9,13.1,25.7,20.7,51.4,23.6,70.6,0,0,0,0,0,.2,0,0,0,.2,0,.3,21.9,59.5,10,120-7.2,156.9-26.7,57.2-91.2,115.8-192.2,113-109.1-3.1-205.2-84.1-223.2-190.1-3.3-16.7,0-25.2,1.6-38.8-2,10.5-2.8,13.5-3.8,32.1,0,.4,0,.8,0,1.2,0,128.4,104.1,232.5,232.6,232.5s210.5-83.5,229.2-193.2c.4-3,.7-6,1.1-9,4.6-39.9-.5-81.8-15.1-116.9Z"/>
  <path class="st7" d="M358.5,204.3c.5.4,1,.7,1.4,1.1-5.8-10.4-13.1-19.8-21.6-28.2-72.3-72.3-19-156.7-10-161,0,0,0-.1,0-.1-58.4,34.2-78.2,97.5-80.1,129.2,2.7-.2,5.4-.4,8.2-.4,43.6,0,81.6,24,101.9,59.5h0Z"/>
  <path class="st9" d="M256.7,218.8c-.4,5.8-20.8,25.7-28,25.7-66.1,0-76.9,40-76.9,40,2.9,33.7,26.4,61.4,54.8,76.1,1.3.7,2.6,1.3,3.9,1.9,2.2,1,4.5,1.9,6.8,2.8,9.7,3.4,19.9,5.4,30.3,5.8,115.9,5.4,138.4-138.6,54.7-180.4,21.4-3.7,43.7,4.9,56.1,13.6-20.3-35.5-58.3-59.5-101.9-59.5s-5.5.2-8.2.4c-23.3,1.6-45.6,10.2-64,24.7,3.5,3,7.5,7,16,15.3,15.8,15.5,56.3,31.7,56.3,33.5h0Z"/>
  <path class="st8" d="M256.7,218.8c-.4,5.8-20.8,25.7-28,25.7-66.1,0-76.9,40-76.9,40,2.9,33.7,26.4,61.4,54.8,76.1,1.3.7,2.6,1.3,3.9,1.9,2.2,1,4.5,1.9,6.8,2.8,9.7,3.4,19.9,5.4,30.3,5.8,115.9,5.4,138.4-138.6,54.7-180.4,21.4-3.7,43.7,4.9,56.1,13.6-20.3-35.5-58.3-59.5-101.9-59.5s-5.5.2-8.2.4c-23.3,1.6-45.6,10.2-64,24.7,3.5,3,7.5,7,16,15.3,15.8,15.5,56.3,31.7,56.3,33.5h0Z"/>
  <path class="st2" d="M173.6,162.2c1.6,1,3.2,2.1,4.8,3.2-5.3-18.5-5.5-38.2-.7-56.8-23.9,10.9-42.5,28.1-56,43.3,1.1,0,34.9-.6,51.8,10.4h0Z"/>
  <path class="st6" d="M25.9,269c17.9,106,114.1,187,223.2,190.1,101,2.9,165.5-55.8,192.2-113,17.2-37,29.2-97.5,7.2-156.9h0s0-.3,0-.3c0-.2,0-.3,0-.2,0,0,0,.1,0,.4,8.2,53.9-19.2,106-62,141.3v.3c-83.6,68-163.5,41-179.6,30-1.1-.5-2.3-1.1-3.4-1.7-48.7-23.3-68.8-67.6-64.5-105.6-41.1,0-55.1-34.7-55.1-34.7,0,0,36.9-26.3,85.5-3.4,45,21.2,87.3,3.4,87.3,3.4,0-1.9-40.6-18-56.3-33.5-8.4-8.3-12.4-12.3-16-15.3-1.9-1.6-3.9-3.1-6-4.5-1.6-1.1-3.2-2.1-4.8-3.2-17-11-50.7-10.4-51.8-10.4h-.1c-9.2-11.7-8.6-50.2-8-58.2-.1-.5-6.9,3.5-7.8,4.1-8.1,5.8-15.7,12.3-22.7,19.5-8,8.1-15.2,16.8-21.7,26.1,0,0,0,0,0,0,0,0,0,0,0,0-15,21.2-25.6,45.1-31.2,70.5-.1.5-8.4,36.6-4.3,55.4h0Z"/>
  <path class="st4" d="M338.4,177.2c8.5,8.3,15.8,17.8,21.6,28.2,1.3,1,2.5,1.9,3.5,2.9,52.7,48.6,25.1,117.3,23,122.2,42.8-35.3,70.2-87.5,62-141.3-26.3-65.5-70.9-92-107.3-149.5-1.8-2.9-3.7-5.8-5.5-8.9-.9-1.6-1.8-3.2-2.6-4.8-1.5-2.9-2.7-6-3.5-9.2,0-.3-.2-.6-.5-.6-.1,0-.3,0-.4,0,0,0,0,0-.1,0,0,0-.1,0-.2,0-9,4.3-62.3,88.7,10,161h0Z"/>
  <path class="st5" d="M363.4,208.2c-1-.9-2.2-1.9-3.5-2.9-.5-.4-.9-.7-1.4-1.1-12.4-8.7-34.7-17.3-56.1-13.6,83.7,41.8,61.2,185.8-54.7,180.4-10.3-.4-20.5-2.4-30.3-5.8-2.3-.9-4.6-1.8-6.8-2.8-1.3-.6-2.6-1.2-3.9-1.9,0,0,.1,0,.2,0,16.2,11,96,38,179.5-30v-.3c2.2-4.9,29.8-73.6-22.9-122.2h0Z"/>
  <path class="st10" d="M151.9,284.5s10.7-40,76.9-40,27.6-20,28-25.7-42.3,17.8-87.3-3.4c-48.6-22.9-85.5,3.4-85.5,3.4,0,0,14,34.7,55.1,34.7-4.3,38,15.8,82.4,64.5,105.6,1.1.5,2.1,1.1,3.2,1.6-28.4-14.7-51.9-42.4-54.8-76.1Z"/>
  <path class="st0" d="M471.5,177c-10.1-24.3-30.6-50.6-46.7-58.9,13.1,25.7,20.7,51.4,23.6,70.6,0,0,0,.1,0,.4-26.3-65.5-70.9-92-107.3-149.5-1.8-2.9-3.7-5.8-5.5-8.9-.9-1.6-1.8-3.2-2.6-4.8-1.5-2.9-2.7-6-3.5-9.2,0-.3-.2-.6-.5-.6-.1,0-.3,0-.4,0,0,0,0,0-.1,0,0,0-.1,0-.2,0,0,0,0-.1,0-.1-58.4,34.2-78.2,97.5-80.1,129.2,2.7-.2,5.4-.4,8.2-.4,43.6,0,81.6,24,101.9,59.5-12.4-8.7-34.7-17.3-56.1-13.6,83.7,41.8,61.2,185.8-54.7,180.4-10.3-.4-20.5-2.4-30.3-5.8-2.3-.9-4.6-1.8-6.8-2.8-1.3-.6-2.6-1.2-3.9-1.9,0,0,.1,0,.2,0-1.1-.5-2.3-1.1-3.4-1.7,1.1.5,2.1,1.1,3.2,1.6-28.4-14.7-51.9-42.4-54.8-76.1,0,0,10.7-40,76.9-40s27.6-20,28-25.7c0-1.9-40.6-18-56.3-33.5-8.4-8.3-12.4-12.3-16-15.3-1.9-1.6-3.9-3.1-6-4.5-5.3-18.5-5.5-38.2-.7-56.8-23.9,10.9-42.5,28.1-56,43.3h-.1c-9.2-11.7-8.6-50.2-8-58.2-.1-.5-6.9,3.5-7.8,4.1-8.1,5.8-15.7,12.3-22.7,19.5-7.9,8.1-15.2,16.8-21.7,26,0,0,0,0,0,0,0,0,0,0,0,0-15,21.2-25.6,45.1-31.2,70.5-.1.5-.2,1-.3,1.5-.4,2-2.4,12.4-2.7,14.7,0,.2,0-.2,0,0-1.8,10.7-2.9,21.6-3.4,32.4,0,.4,0,.8,0,1.2,0,128.4,104.1,232.5,232.6,232.5s210.5-83.5,229.2-193.2c.4-3,.7-6,1.1-9,4.6-39.9-.5-81.8-15.1-116.9ZM448.5,188.9c0,0,0,.2,0,.3h0s0-.3,0-.3Z"/>
</svg>