<?xml version="1.0" encoding="UTF-8"?>
<svg id="Capa_1" xmlns="http://www.w3.org/2000/svg" width="512" height="512" version="1.1" xmlns:xlink="http://www.w3.org/1999/xlink" viewBox="0 0 512 512">
  <!-- Generator: Adobe Illustrator 29.2.1, SVG Export Plug-In . SVG Version: 2.1.0 Build 116)  -->
  <defs>
    <style>
      .st0 {
        fill: url(#linear-gradient2);
      }

      .st1 {
        fill: #ec9a00;
      }

      .st2 {
        fill: url(#linear-gradient10);
      }

      .st3 {
        fill: #838384;
      }

      .st4, .st5, .st6, .st7 {
        fill: #7d7d7d;
      }

      .st8 {
        fill: url(#radial-gradient13);
      }

      .st8, .st9, .st5, .st10, .st6, .st11, .st12, .st13, .st14, .st15, .st16, .st7, .st17 {
        isolation: isolate;
      }

      .st8, .st16 {
        opacity: .8;
      }

      .st9 {
        fill: url(#radial-gradient1);
        opacity: .4;
      }

      .st18 {
        fill: url(#radial-gradient10);
      }

      .st19 {
        fill: url(#linear-gradient1);
      }

      .st20 {
        fill: url(#linear-gradient9);
      }

      .st5 {
        opacity: .9;
      }

      .st21 {
        fill: #e6b300;
      }

      .st22 {
        fill: #0c0c0b;
      }

      .st23 {
        fill: url(#radial-gradient11);
      }

      .st24 {
        fill: url(#linear-gradient8);
      }

      .st25 {
        fill: url(#linear-gradient11);
      }

      .st26 {
        fill: #694200;
      }

      .st10 {
        fill: url(#radial-gradient3);
      }

      .st10, .st17 {
        opacity: .3;
      }

      .st27 {
        fill: url(#radial-gradient5);
      }

      .st28 {
        fill: #ffbd00;
      }

      .st6, .st14 {
        opacity: .2;
      }

      .st11 {
        fill: url(#linear-gradient);
      }

      .st11, .st13 {
        opacity: .2;
      }

      .st29 {
        fill: url(#radial-gradient7);
      }

      .st12 {
        opacity: .1;
      }

      .st30 {
        fill: url(#linear-gradient7);
      }

      .st13 {
        fill: url(#radial-gradient2);
      }

      .st31 {
        fill: #fcfcfa;
      }

      .st14 {
        fill: url(#radial-gradient);
      }

      .st32 {
        fill: url(#linear-gradient4);
      }

      .st33 {
        fill-opacity: .3;
      }

      .st34 {
        fill: url(#linear-gradient5);
      }

      .st15 {
        opacity: .3;
      }

      .st35 {
        fill: url(#radial-gradient8);
      }

      .st36 {
        fill: url(#linear-gradient3);
      }

      .st37 {
        fill: url(#radial-gradient6);
      }

      .st38 {
        fill: #e18900;
      }

      .st16 {
        fill: url(#radial-gradient12);
      }

      .st39 {
        fill: url(#linear-gradient6);
      }

      .st7 {
        opacity: .8;
      }

      .st40 {
        fill: #ffda37;
      }

      .st41 {
        fill: #ffc000;
      }

      .st42 {
        fill: url(#radial-gradient9);
      }

      .st17 {
        fill: url(#radial-gradient4);
      }
    </style>
    <radialGradient id="radial-gradient" cx="1939.8" cy="-6481.8" fx="1939.8" fy="-6481.8" r="44.3" gradientTransform="translate(1732.1 5191.2) rotate(-180) scale(.8 -.8)" gradientUnits="userSpaceOnUse">
      <stop offset="0" stop-color="#000"/>
      <stop offset="1" stop-color="#000" stop-opacity=".2"/>
    </radialGradient>
    <radialGradient id="radial-gradient1" cx="456.2" cy="-6456.3" fx="456.2" fy="-6456.3" r="44.3" gradientTransform="translate(-167 5191.2) scale(1 .8)" gradientUnits="userSpaceOnUse">
      <stop offset="0" stop-color="#000"/>
      <stop offset="1" stop-color="#000" stop-opacity=".2"/>
    </radialGradient>
    <radialGradient id="radial-gradient2" cx="397.1" cy="-5621.7" fx="397.1" fy="-5621.7" r="17.5" gradientTransform="translate(-167 6266) scale(1 1.1)" gradientUnits="userSpaceOnUse">
      <stop offset="0" stop-color="#000"/>
      <stop offset="1" stop-color="#000" stop-opacity=".2"/>
    </radialGradient>
    <linearGradient id="linear-gradient" x1="545.8" y1="-5613.7" x2="551.8" y2="-5569.2" gradientTransform="translate(-198.3 6022.8) scale(1 1)" gradientUnits="userSpaceOnUse">
      <stop offset="0" stop-color="#000"/>
      <stop offset="1" stop-color="#000" stop-opacity="0"/>
    </linearGradient>
    <linearGradient id="linear-gradient1" x1="599.8" y1="-5535.3" x2="677.5" y2="-5661.3" gradientTransform="translate(-267 6022.8)" gradientUnits="userSpaceOnUse">
      <stop offset="0" stop-color="#422600"/>
      <stop offset="1" stop-color="#be7900"/>
    </linearGradient>
    <linearGradient id="linear-gradient2" x1="540.5" y1="-5664.4" x2="538.2" y2="-5643.9" gradientTransform="translate(-167 6020.8)" gradientUnits="userSpaceOnUse">
      <stop offset="0" stop-color="#ffcd00"/>
      <stop offset="1" stop-color="#ffcd00" stop-opacity="0"/>
    </linearGradient>
    <linearGradient id="linear-gradient3" x1="186.4" y1="-5641" x2="263.5" y2="-5511.6" gradientTransform="translate(-97 6022.8)" gradientUnits="userSpaceOnUse">
      <stop offset="0" stop-color="#ca8300"/>
      <stop offset="1" stop-color="#3b2100"/>
    </linearGradient>
    <linearGradient id="linear-gradient4" x1="272.4" y1="-5610.6" x2="296.6" y2="-5564.9" gradientTransform="translate(-97.5 6021.1)" gradientUnits="userSpaceOnUse">
      <stop offset="0" stop-color="#f8c400"/>
      <stop offset="1" stop-color="#f8c400" stop-opacity="0"/>
    </linearGradient>
    <radialGradient id="radial-gradient3" cx="285.3" cy="-4822.7" fx="285.3" fy="-4822.7" r="27.2" gradientTransform="translate(-1776 6903.4) rotate(15) scale(1.4 1.4)" gradientUnits="userSpaceOnUse">
      <stop offset="0" stop-color="#0b0200"/>
      <stop offset=".6" stop-color="#bb5a00" stop-opacity=".8"/>
      <stop offset="1" stop-color="#ff9200" stop-opacity="0"/>
    </radialGradient>
    <radialGradient id="radial-gradient4" cx="121.9" cy="-5403.7" fx="121.9" fy="-5403.7" r="27.2" gradientTransform="translate(-1776 5705.7) rotate(11) scale(1.3 1) skewX(-7.4)" gradientUnits="userSpaceOnUse">
      <stop offset="0" stop-color="#0b0200"/>
      <stop offset=".6" stop-color="#bb5a00" stop-opacity=".8"/>
      <stop offset="1" stop-color="#ff9200" stop-opacity="0"/>
    </radialGradient>
    <radialGradient id="radial-gradient5" cx="398.4" cy="-870.3" fx="398.4" fy="-870.3" r="9.2" gradientTransform="translate(0 -510.7) scale(1 -1)" gradientUnits="userSpaceOnUse">
      <stop offset="0" stop-color="#7d7d7d"/>
      <stop offset="1" stop-color="#7d7d7d" stop-opacity=".3"/>
    </radialGradient>
    <linearGradient id="linear-gradient5" x1="369.6" y1="-860.7" x2="373.9" y2="-860.9" gradientTransform="translate(0 -510.7) scale(1 -1)" gradientUnits="userSpaceOnUse">
      <stop offset="0" stop-color="#7d7d7d"/>
      <stop offset="1" stop-color="#7d7d7d" stop-opacity=".3"/>
    </linearGradient>
    <radialGradient id="radial-gradient6" cx="259.4" cy="-5468.2" fx="259.4" fy="-5468.2" r="23" gradientTransform="translate(166.2 6946.9) rotate(-2.4) scale(.8 1.2) skewX(-1.6)" gradientUnits="userSpaceOnUse">
      <stop offset="0" stop-color="#fdfdfb"/>
      <stop offset=".8" stop-color="#fdfdfb"/>
      <stop offset="1" stop-color="#d4d4d4"/>
    </radialGradient>
    <linearGradient id="linear-gradient6" x1="278.8" y1="-5919.5" x2="288.2" y2="-5902.7" gradientTransform="translate(-67 6022.8)" gradientUnits="userSpaceOnUse">
      <stop offset="0" stop-color="#767675" stop-opacity="0"/>
      <stop offset=".3" stop-color="#767675"/>
      <stop offset=".5" stop-color="#767675"/>
      <stop offset="1" stop-color="#767675" stop-opacity="0"/>
    </linearGradient>
    <radialGradient id="radial-gradient7" cx="212.1" cy="-604.7" fx="212.1" fy="-604.7" r="16.4" gradientTransform="translate(0 -510.7) scale(1 -1)" gradientUnits="userSpaceOnUse">
      <stop offset="0" stop-color="#d4d4d4"/>
      <stop offset="1" stop-color="#7d7d7d"/>
    </radialGradient>
    <linearGradient id="linear-gradient7" x1="369.1" y1="-5947.9" x2="390.8" y2="-5927" gradientTransform="translate(-157 6022.8)" gradientUnits="userSpaceOnUse">
      <stop offset="0" stop-color="#646464" stop-opacity="0"/>
      <stop offset=".3" stop-color="#646464" stop-opacity=".6"/>
      <stop offset=".5" stop-color="#646464"/>
      <stop offset=".7" stop-color="#646464" stop-opacity=".3"/>
      <stop offset="1" stop-color="#646464" stop-opacity="0"/>
    </linearGradient>
    <radialGradient id="radial-gradient8" cx="479.8" cy="-5461.3" fx="479.8" fy="-5461.3" r="22.5" gradientTransform="translate(-30.6 6946.9) rotate(-1.8) scale(1.1 1.2)" gradientUnits="userSpaceOnUse">
      <stop offset="0" stop-color="#fdfdfb"/>
      <stop offset=".8" stop-color="#fdfdfb"/>
      <stop offset="1" stop-color="#d4d4d4"/>
    </radialGradient>
    <linearGradient id="linear-gradient8" x1="351.5" y1="-5918.2" x2="362.4" y2="-5905.4" gradientTransform="translate(-77 6022.8)" gradientUnits="userSpaceOnUse">
      <stop offset="0" stop-color="#949494" stop-opacity=".4"/>
      <stop offset=".5" stop-color="#949494"/>
      <stop offset="1" stop-color="#949494" stop-opacity=".4"/>
    </linearGradient>
    <radialGradient id="radial-gradient9" cx="278.1" cy="-607.4" fx="278.1" fy="-607.4" r="20.4" gradientTransform="translate(0 -510.7) scale(1 -1)" gradientUnits="userSpaceOnUse">
      <stop offset="0" stop-color="#d4d4d4"/>
      <stop offset="1" stop-color="#7d7d7d"/>
    </radialGradient>
    <linearGradient id="linear-gradient9" x1="435" y1="-5948.8" x2="458" y2="-5927.1" gradientTransform="translate(-157 6022.8)" gradientUnits="userSpaceOnUse">
      <stop offset="0" stop-color="#646464" stop-opacity="0"/>
      <stop offset=".3" stop-color="#646464" stop-opacity=".6"/>
      <stop offset=".5" stop-color="#646464"/>
      <stop offset=".7" stop-color="#646464" stop-opacity=".3"/>
      <stop offset="1" stop-color="#646464" stop-opacity="0"/>
    </linearGradient>
    <radialGradient id="radial-gradient10" cx="2017.6" cy="-6452.8" fx="2017.6" fy="-6452.8" r="24.9" gradientTransform="translate(1799.1 5239.2) rotate(-36) scale(.9 .8)" gradientUnits="userSpaceOnUse">
      <stop offset="0" stop-color="#000"/>
      <stop offset=".7" stop-color="#000"/>
      <stop offset="1" stop-color="#5c5c5c"/>
    </radialGradient>
    <radialGradient id="radial-gradient11" cx="1352.2" cy="-6874.8" fx="1352.2" fy="-6874.8" r="50.3" gradientTransform="translate(858.9 5190.3) rotate(-22.4) scale(1 .7)" gradientUnits="userSpaceOnUse">
      <stop offset="0" stop-color="#e59400"/>
      <stop offset=".8" stop-color="#eb9c00"/>
      <stop offset=".9" stop-color="#c87f00"/>
      <stop offset="1" stop-color="#a46100"/>
    </radialGradient>
    <linearGradient id="linear-gradient10" x1="366.9" y1="-5877.5" x2="458.2" y2="-5878.2" gradientTransform="translate(-167 6022.8)" gradientUnits="userSpaceOnUse">
      <stop offset="0" stop-color="#be7900"/>
      <stop offset=".1" stop-color="#ea9e00"/>
      <stop offset=".3" stop-color="#ffb800"/>
      <stop offset=".4" stop-color="#f7c800"/>
      <stop offset=".5" stop-color="#ffd815"/>
      <stop offset=".8" stop-color="#ffd800"/>
      <stop offset="1" stop-color="#ffcd04"/>
    </linearGradient>
    <radialGradient id="radial-gradient12" cx="206.7" cy="-7548.9" fx="206.7" fy="-7548.9" r="5.2" gradientTransform="translate(43 4531.5) scale(1 .6)" gradientUnits="userSpaceOnUse">
      <stop offset="0" stop-color="#3d2400"/>
      <stop offset=".6" stop-color="#7e5100"/>
      <stop offset="1" stop-color="#b78c00"/>
    </radialGradient>
    <radialGradient id="radial-gradient13" cx="183.2" cy="-5732.8" fx="183.2" fy="-5732.8" r="2.5" gradientTransform="translate(43 6291.7) scale(1 1.1)" gradientUnits="userSpaceOnUse">
      <stop offset="0" stop-color="#3d2400"/>
      <stop offset=".6" stop-color="#7e5100"/>
      <stop offset="1" stop-color="#b78c00"/>
    </radialGradient>
    <linearGradient id="linear-gradient11" x1="206.1" y1="-5091.2" x2="206.8" y2="-5086.7" gradientTransform="translate(-801.1 7871.6) scale(1.1 1.5) skewX(-8.8)" gradientUnits="userSpaceOnUse">
      <stop offset="0" stop-color="#ffce00"/>
      <stop offset="1" stop-color="#ea9b00"/>
    </linearGradient>
  </defs>
  <path id="path28712-2" d="M254.8,16c-11.6-.1-23.3,2.2-33.5,7.7-10.8,5.8-19.7,15.2-25.2,26.2-5.5,11-7.6,22.8-7.9,35.8-.6,24.6.6,50.5,2.4,73.9.5,7.1,1.4,11.3.5,18.6-3,15.6-16.7,26-23.9,39.7-8,15.1-11.4,32.1-17.4,48.1-5.5,14.6-13.3,28.3-18.5,43-7.3,20.6-9.5,43.2-4.7,64.5,3.7,16.2,11.4,31.5,21.8,44.5-1.5,2.7-3,5.4-4.5,8.1-4.8,8.3-10.7,16.2-13.4,25.4-1.4,4.6-1.9,9.5-1,14.2s3.3,9.2,7,12.2c2.5,2,5.4,3.2,8.5,3.9,3.1.7,6.2.9,9.4.8,11.9-.3,23.5-3.9,35.1-6.9,6.9-1.8,13.8-3.4,20.7-4.8,24.6-5,52.1-3,75,.3,7.7,1.2,15.4,2.7,23,4.5,11.9,2.9,23.8,6.6,36.1,6.9,3.2,0,6.5,0,9.6-.8,3.2-.7,6.2-2,8.7-4,3.8-3,6.2-7.5,7-12.3s.3-9.7-1-14.3c-2.8-9.2-8.7-17.1-13.6-25.4-1.9-3.3-3.7-6.6-5.7-9.9,14.8-16.6,26.7-35.9,33.6-57,7.5-23.1,8.9-47.9,5.7-72-3.2-24.1-10.8-47.4-20.8-69.5-12.6-27.7-23.2-37.7-30.9-62-8.3-26.3-1.4-57.4-7.6-81.2-2.2-8.1-5.7-15.8-10.2-22.9-5.3-8.3-12-15.7-20-21.5-12.7-9.2-28.5-14-44.2-14.1h0Z"/>
  <path id="path29719-5" class="st31" d="M209.4,154.8c-1.7,2.1-2.8,4.7-3.5,7.3-.7,2.6-.9,5.3-1,8.1-.2,5.4.1,10.9-1.3,16.2-1.5,5.6-5,10.4-8.3,15.2-5.8,8.2-11.7,16.6-14.6,26.2-1.7,5.8-2.3,12-1.7,18-6.5,9.6-12.2,19.7-16.8,30.3-7.1,16.1-12,33.2-13.7,50.6-2.1,21.4.6,43.4,9.1,63.2,6.1,14.3,15.2,27.4,27,37.6,6,5.2,12.6,9.6,19.7,13.1,24.6,12.1,55,12.1,79.1-.8,12.6-6.7,23.3-16.6,33.6-26.5,6.2-6,12.4-12.1,17.1-19.3,9.1-13.9,12.3-30.8,14.2-47.2,3.4-28.8,3.6-59.3-9.1-85.4-4.3-9-10.1-17.3-17.1-24.5-1.9-12.6-5.5-24.9-10.8-36.4-3.8-8.3-8.5-16.3-12.1-24.7-1.5-3.5-2.7-7-4.4-10.4-1.6-3.4-3.6-6.7-6.3-9.3-2.8-2.7-6.3-4.6-9.9-5.8-3.7-1.2-7.5-1.8-11.4-1.9-7.7-.4-15.4.6-23.1.3-6.1-.2-12.2-1.3-18.4-1-3.1.2-6.1.7-9,1.9-2.8,1.2-5.5,2.9-7.4,5.3"/>
  <path id="path4400-1" class="st14" d="M182.2,232c1.6,2.5-1,11,37.2,5.5,0,0-6.7.7-13.3,2.3-10.3,3.4-19.3,7.3-26.2,12.4-6.9,5-11.9,11.6-18.2,17.3,0,0,10.2-18.6,12.7-24.2s-.4-5.3,1.6-13.6c2-8.2,6.9-16.2,6.9-16.2,0,0-4,11.7-.8,16.5Z"/>
  <path id="path4400-2-8" class="st9" d="M305.3,229.7c-7.8,5.4-12.4,4.8-21.8,5.9-9.5,1.1-35.1.7-35.1.7,0,0,3.7,0,11.9,1.5,8.2,1.5,25,3,34.4,6.6,9.4,3.6,12.9,4.6,18.6,8.2,8.2,5.2,14.2,13.2,22,18.9,0,0,.4-7.5-2.8-13.1-3.1-5.6-11.6-14.4-14.1-22.7s-3.7-24.4-3.7-24.4c0,0-1.6,13.1-9.4,18.5h0Z"/>
  <path id="path4491-9" class="st13" d="M231.9,218.1c-.3,2.4-.7,4.7-1.1,7-.2,1.1-.5,2.3-.9,3.4-.4,1.1-1,2.1-1.9,2.9-.8.7-1.7,1.2-2.6,1.6-3.6,1.7-7.5,2.8-11.5,3.3,1.6.1,3.2.3,4.7.4,1,.1,2,.2,3,.5,1,.2,1.9.6,2.7,1.2.9.6,1.6,1.5,2.1,2.5,1,1.9,1.4,4.1,1.6,6.3.2,2.8.3,5.6,0,8.4.2-1.9.6-3.7,1.2-5.5,1.1-3.2,2.8-6.2,5-8.7.9-1,1.9-1.9,3-2.7,3.4-2.4,7.6-3.4,11.7-2.8-4.1.2-8.3-1.1-11.6-3.6-1.7-1.3-3.1-2.8-4.2-4.7-1.6-2.9-2-6.3-1.2-9.5"/>
  <path id="path4542-7" class="st12" d="M222,273.1c-2,7.6-3.4,15.3-4.1,23.1-1,11-.8,22.1-1.4,33.1-.5,9.4-1.6,18.8,0,28.1.8,4.4,2.2,8.7,4.1,12.7.3-1.5.5-3.1.7-4.6.7-7.5-.6-15-1-22.5-.7-13.2,1.1-26.3,1.8-39.5.6-10.1.5-20.2-.2-30.3h0"/>
  <path id="path28767-9-3" class="st6" d="M186.5,198.7c-.2-2.3-3.5-2.7-5-1.5-1.2,1-2.4,4.3-1.3,5.6,1.7,2.1,6.6-.9,6.3-4.1Z"/>
  <path id="path15189-4" class="st7" d="M353.7,262.1c1.9-.3,13.8,9.8,12.1,13.5-1.6,3.7-4.7,1.5-6.8,1.5s-8.1,2.7-9.1,1,2.6-5.7,4.5-9c1.5-2.7-2.6-6.7-.7-7h0Z"/>
  <path id="path28767-3" class="st4" d="M281.3,36.9c-4.1,2.9-2.3,6.6-.6,10.2s-3.9,14.2-4,14.7c0,.5,11.2-5.4,14.3-9.1,3.6-4.5,12.8,6,12.3,4.4,0-2.9-17.9-23.1-22.1-20.2Z"/>
  <path id="path4596-3" class="st3" d="M312.8,159.7c-3.5,3.2,1.6,8,4.1,13.6,1.5,3.5,5.7,8.4,9.7,7.6,3-.6,4.9-5,4.6-8.1-.6-6-5.6-7.4-9.2-9.4-2.9-1.6-6.8-6-9.2-3.7Z"/>
  <path id="path28461-8-7" class="st33" d="M205.6,183.5c2.8,8,8.3,14.8,14.8,20.1,2.2,1.8,4.5,3.4,7.1,4.6s5.4,1.8,8.2,1.6c2.7-.2,5.3-1.3,7.7-2.7,2.4-1.4,4.6-3,6.9-4.5,4-2.5,8.2-4.6,12.4-6.8,5-2.7,9.8-5.8,14-9.6,1.9-1.8,3.7-3.7,5.8-5.2s4.7-2.6,7.3-2.4c1.9.1,3.8,1,5.7,1.4,1,.2,1.9.3,2.9.2,1-.1,1.9-.6,2.6-1.3.8-.9,1.2-2.1,1.1-3.3,0-1.2-.5-2.3-1-3.4-1.1-2.1-2.8-3.9-3.6-6.2-.7-2-.5-4.2-.5-6.3,0-2.1,0-4.3-1-6.2-.7-1.4-2-2.6-3.4-3.3-1.4-.8-3-1.1-4.6-1.3-3.2-.3-6.5.3-9.7.5-4.3.2-8.6-.3-12.9,0-5.4.3-10.6,1.9-16,1.9-6.1,0-12.2-2-18.3-1-2.6.4-5.1,1.4-7.6,2.2s-5.1,1.6-7.7,1.5c-3,0-5.9-1.1-8.8-1.3-1.5-.1-3,0-4.4.5-1.4.5-2.7,1.5-3.3,2.8-.4.8-.6,1.6-.6,2.5,0,.9,0,1.7.3,2.5.4,1.7,1.2,3.2,1.8,4.8,2.3,5.7,2.7,12,4.7,17.9"/>
  <path id="path28461-84-3" class="st15" d="M197.9,160.8c5.3,3.3,10.1,7.4,14.2,12,3.7,4.3,6.9,9.2,11.8,12.3,3.4,2.2,7.6,3.5,11.8,3.9,4.9.5,9.9-.3,14.7-1.6,4.4-1.2,8.7-2.9,12.6-5.1,7.4-4.2,13.6-10.4,21.8-13.2,1.8-.6,3.7-1,5.4-1.8s3.3-1.9,4.2-3.4c.8-1.5.8-3.3,1-4.9.3-1.8.9-3.5,1.2-5.3.3-1.8.4-3.7-.5-5.3-.7-1.4-1.9-2.4-3.4-3.1-1.4-.7-3.1-1-4.7-1.1-3.2-.1-6.4.6-9.7.9-4.3.4-8.6-.1-12.9,0-5.3.1-10.6,1.3-16,1.5-6.1.3-12.2-.6-18.3-.8-2.6,0-5.3,0-7.9.4s-5.2,1.2-7.3,2.6c-2.1,1.3-3.9,3.1-5.8,4.6-1,.8-2,1.5-3.2,2-1.1.5-2.4.9-3.7,1-.7,0-1.3,0-2,0-1.1.2-2.1.7-2.7,1.6s-.9,1.9-.7,2.9h0"/>
  <path id="path29705-5-0" d="M358.7,254.3c9.8,7.9,16.1,19.9,18,32.3,1.5,9.7.5,19.7-1.7,29.3s-5.6,18.9-8.9,28.1c-1.3,3.7-2.7,7.4-3.2,11.3-.5,3.9-.2,8,1.7,11.5,2.1,4,6.2,6.7,10.5,8,4.3,1.3,8.9,1.2,13.2.2,4.3-1.1,11.6-2.5,15.1-5.2,8.9-6.9,11-18.9,13.1-29.5,2.2-11,1.1-22.5-.8-33.7-2.6-15.2-7.1-30-12.7-44.3-4.2-10.5-9.5-20.6-15.8-29.9-6.2-9.2-15-16.3-21.6-25.3-2.3-3.1-5-6.4-7.2-9.5-4.8-6.8-3.7-5.5-6.7-9.9-2.2-3.2-5.6-4.3-9.2-5.7-3.6-1.4-7.6-1.8-11.3-.8-4.9,1.4-8.9,5.2-11,9.8s-2.5,9.9-1.7,14.9c1.1,6.5,4,12.4,7.3,18.1,3.8,6.4,8.1,12.5,13.8,17.2,5.9,4.9,13.1,8.2,19.1,13"/>
  <path id="path14967-1-0" d="M173.5,205.2c-11.4,13-23.2,25.6-29.6,39.6-3.2,7.1-4.7,14.9-6.9,22.4-2.5,8.5-5.9,16.8-9.6,24.8-3.5,7.4-7.4,14.6-11.2,21.9-2.8,5.3-5.7,10.6-6.6,16.5-.8,4.6-.3,9.4.9,14,1.2,4.6,3.1,8.9,5.2,13.1,9.2,17.9,22.9,33.3,39.2,45.1,7.4,5.4,15.3,10,23.6,13.8,4.5,2.1,9.2,3.9,14.2,4,2.5,0,5-.4,7.2-1.4,2.3-1,4.3-2.6,5.6-4.7,1.7-2.5,2.2-5.7,1.9-8.7-.3-3-1.5-5.9-3.1-8.5-3.9-6.3-10-10.9-15.8-15.5-12.7-9.8-24.9-20.2-36.6-31.1-3.3-3.1-6.6-6.3-8.9-10.2-2.3-3.8-3.5-8.1-4.3-12.4-2.3-11.9-1.7-24.4,2.4-35.8,1.6-4.5,3.7-8.7,5.7-13,3.5-7.4,6.8-15,11.4-21.8,5.7-8.5,13.4-15.6,18-24.7,3.9-7.7,5.5-16.3,7-24.8,1.2-6.6,3.5-13.1,4.6-19.8-2.3,4.3-9.6,11.4-14.1,17h0Z"/>
  <path class="st3" d="M378.5,315.7c-3.2,11.8-7.9,23.1-12,34.6-1.4,3.9-2.7,7.8-3.6,11.8-.4-2.2-.4-4.5,0-6.8.5-3.9,1.9-7.6,3.2-11.3,3.4-9.3,6.7-18.5,8.9-28.1,2.2-9.6,3.2-19.6,1.7-29.3-1.9-12.5-8.2-24.4-18-32.3-5.9-4.7-12.8-7.9-18.7-12.7,6.6,3.6,13.6,6.8,19.7,11.3,10.5,7.8,17.9,19.6,20,32.3,1.7,10.2,2,18.6-1.2,30.4Z"/>
  <path class="st5" d="M140.7,292.1c-4,11.4-4.6,23.9-2.4,35.8.8,4.3,2,8.6,4.3,12.4,2.3,3.9,5.6,7.1,8.9,10.2.5.5,1,.9,1.5,1.4-.2,0-.4,0-.7,0-2.4-.3-4.7-1.4-6.6-2.9-1.9-1.5-3.5-3.5-4.8-5.6-1.6-2.6-2.7-5.4-4.5-7.8-2.2-2.9-5.2-5.1-8.6-6.2,2.5-.9,4.7-2.7,6-5.1,1.6-2.8,1.9-6.1,1.8-9.3-.1-3.2-.6-6.4-.4-9.6.3-6.2,3-12.1,5.4-17.9,3.1-7.8,5.7-15.9,10-23.1,2.6-4.4,5.9-8.4,9.6-11.8.4-.9,1-1.7,1.8-2.3.6-.4,1.2-.7,1.9-.9-2.2,2.7-4.3,5.3-6.2,8.2-4.6,6.8-7.9,14.3-11.4,21.8-2,4.3-4.1,8.5-5.7,13Z"/>
  <path id="path14483-7-4" class="st11" d="M424.8,420.3c-.8,2.5-1.9,4.9-3.4,7.1-3.3,4.9-8.1,8.5-12.8,11.9-8.1,5.8-16.6,11-24.2,17.6-5.1,4.4-9.7,9.3-14,14.5-3.7,4.4-7.1,9.1-11.3,13-4.2,4-9.2,7.2-14.5,8.9-6.5,2.1-13.4,2-19.6.4-4.4-1.1-8.7-3.1-11.4-6.6-2.7-3.6-3.6-8.3-3.9-13-.6-8.3.4-16.8,1.3-25.2.7-7,1.4-14,1.7-21,.5-12.7-.3-25.3-2-37.6-.3-2.1-.6-4.1-.4-6.3.2-2.1.9-4.3,2.4-6,1.4-1.5,3.3-2.4,5.2-2.9,1.9-.4,3.9-.5,5.8-.5,4.5-.1,9.1-.4,13.6,0,2.8.3,5.6.8,8.4,1,4.7.5,9.6.2,14.3-1.2,5.1-1.5,9.9-4.3,15.1-5.1,2.1-.3,4.2-.3,6.3,0,2.1.3,4.2.9,5.8,2.2,1.2,1,2.1,2.3,2.8,3.7,1,2.1,1.7,4.5,2.1,6.9.3,2.1.4,4.3,1,6.4.9,3.4,3,6.3,5.4,8.6,2.5,2.3,5.4,4.2,8.2,6,2.9,1.8,5.8,3.6,8.8,5.1,1.4.7,2.9,1.3,4.3,2.2s2.7,1.8,3.6,3.1c1.2,1.8,1.7,4.1,1.4,6.4h0"/>
  <path id="path14296-0" class="st19" d="M452.5,434c-4.2,5-10.1,8.4-16,11.3-10,5.1-20.4,9.6-29.8,15.7-6.3,4.1-12.1,8.9-17.5,14.1-4.6,4.4-9.1,9.2-14.3,13-5.3,3.8-11.3,6.6-17.8,7.5-7.8,1.2-15.9-.3-23.1-3.5-5.1-2.2-9.9-5.4-12.9-10.1-2.9-4.7-3.6-10.5-3.6-16,0-9.8,1.8-19.5,3.5-29.2,1.4-8,2.8-16.1,3.7-24.2,1.6-14.8,1.6-29.7.5-44.5-.2-2.5-.4-5,0-7.4s1.4-4.9,3.3-6.5c1.7-1.5,4.1-2.2,6.4-2.3s4.6.2,6.9.6c5.4.8,10.7,1.4,16,2.8,3.3.9,6.5,2,9.8,2.9,5.5,1.5,11.3,2.2,16.9,1.5,6.1-.7,12-3,18.1-2.9,2.5,0,5,.5,7.4,1.3,2.4.8,4.9,1.9,6.7,3.7,1.4,1.4,2.3,3.1,3,5,1.1,2.7,1.6,5.6,1.9,8.5.2,2.6.2,5.2.7,7.7.8,4.2,3,8,5.7,11.2s6,6,9.2,8.7c3.2,2.7,6.5,5.4,10,7.8,1.6,1.1,3.3,2.2,4.9,3.4,1.6,1.2,3,2.7,4,4.4,1.3,2.3,1.7,5.2.9,7.9-.8,2.7-2.4,5.3-4.3,7.6h0Z"/>
  <path id="path14296-3-7" class="st38" d="M452,421.2c-1,2.5-2.4,4.8-4.2,6.9-3.9,4.5-9.3,7.5-14.6,10.2-9.1,4.6-18.6,8.6-27.2,14.1-5.7,3.7-11.1,8-16,12.7-4.2,4-8.3,8.3-13,11.6-4.8,3.4-10.4,5.9-16.2,6.8-7.1,1.1-14.5-.3-21.1-3.1-4.6-2-9.1-4.8-11.8-9-2.7-4.2-3.3-9.4-3.3-14.4,0-8.8,1.6-17.6,3.2-26.3,1.3-7.2,2.5-14.5,3.3-21.8,1.4-13.3,1.4-26.7.5-40-.2-2.2-.3-4.5,0-6.7s1.3-4.4,3-5.9c1.6-1.4,3.7-2,5.8-2.1s4.2.2,6.3.5c4.9.7,9.8,1.3,14.6,2.5,3,.8,6,1.8,9,2.6,5,1.3,10.3,2,15.4,1.4,5.6-.6,11-2.7,16.6-2.6,2.3,0,4.6.5,6.8,1.2,2.2.7,4.4,1.7,6.1,3.3,1.2,1.3,2.1,2.8,2.8,4.5,1,2.4,1.7,5,1.7,7.6,0,2.7-.5,5.5-.2,8.2.3,2.2,1.2,4.3,2.4,6.2s2.6,3.6,4.1,5.3c2.8,3.3,5.6,6.6,9,9.1,4,2.9,8.7,4.5,12.8,7.2,1.2.8,2.4,1.7,3.3,2.9,1.5,2,1.8,4.7,1,7h0"/>
  <path id="path14296-3-1-9" class="st41" d="M451.5,418.4c-1.1,2.5-2.6,4.9-4.3,7-4,4.8-9.3,8.2-15,10.3-9.3,3.5-19.5,4-28.6,8-5.6,2.4-10.6,6.1-15.7,9.6-4.1,2.8-8.3,5.5-12.8,7.5-5.1,2.2-10.5,3.5-15.9,4.3-3.5.6-6.9,1-10.4.8-3.5-.2-7-1-10.1-2.8-2.3-1.3-4.4-3.3-5.7-5.8-1.4-2.8-1.6-6.1-1.6-9.3,0-8.5,1.9-16.8,1.8-25.3,0-7.4-1.5-14.6-1.9-22-.8-14.1,2.2-28.5-.4-42.4-.4-2.2-1-4.4-1-6.7,0-1.1.2-2.3.6-3.3.4-1,1-2,1.9-2.7.7-.6,1.6-.9,2.4-1s1.8-.1,2.6,0c1.8.3,3.4,1,5.1,1.5,4.9,1.5,10,1.4,15,2.5,3.1.7,6.1,1.8,9.2,2.7,5.2,1.4,10.6,2,15.9,1.4,5.7-.7,11.3-2.7,17-2.6,2.4,0,4.7.5,7,1.2,2.3.7,4.5,1.6,6.3,3.4,1.2,1.3,2.1,2.8,2.8,4.5,1.1,2.4,1.8,5,1.8,7.7,0,1.4-.2,2.8-.3,4.1-.1,1.4-.2,2.8.2,4.1.3,1.3,1,2.6,1.8,3.7s1.7,2.1,2.5,3.2c2.3,3,3.9,6.5,5.7,9.9s3.8,6.8,6.6,9.2c3.8,3.3,8.8,4.7,13.1,7.3,1.3.8,2.5,1.7,3.3,2.9.7,1,1.2,2.2,1.4,3.4.2,1.2,0,2.5-.3,3.7h0"/>
  <path id="path16493" class="st0" d="M329.9,356.5c5.3-1.4,9.8,2.6,13.6,5.6,2.5,2.1,6.1,1.6,9.1,1.7,5-.2,10.1.8,15.1.2,9.9-.8,19.7-3.3,29.6-3.7,4.8-.3,10.1-.6,14.2,2.2,1.7,1.2,4.1,6,5.8,4.2-.7-5.1-4.5-10.1-9.6-11.5-4-.6-8.1.5-12.1.1-12-.3-23.9-2.5-35.9-1.9-8.4,0-16.7-.3-25.1-.6-3.3-.7-4.4,2.2-6.2,3.4"/>
  <path id="path4635-1" class="st36" d="M120.3,344.1c2.6-1.1,5.5-1.3,8.2-.8s5.4,1.7,7.7,3.3c4.6,3.1,8.1,7.7,11.3,12.2,7.5,10.4,14.8,21,21.4,32,5.3,8.9,10.2,18.2,16.4,26.6,4,5.5,8.6,10.6,12.6,16,4,5.5,7.6,11.4,9.4,18,2.3,8.5,1.4,17.9-2.6,25.8-2.9,5.5-7.2,10.3-12.6,13.5s-11.6,4.9-17.8,4.6c-9.9-.4-18.9-5.3-28.1-9-18.7-7.5-39-9.8-58.3-15.6-5.9-1.8-11.8-3.9-17.7-5.5-2.7-.7-5.3-1.4-7.9-2.5-2.5-1.1-4.8-2.8-6.2-5.2-1.1-1.8-1.5-4-1.5-6.1,0-2.1.5-4.2,1.3-6.2,1.4-4,3.8-7.6,5.4-11.6,2.6-6.4,3-13.6,2.7-20.5-.3-6.9-1.5-13.8-1.9-20.7-.2-3.1-.3-6.2.3-9.3.6-3,1.9-6,4.1-8.2,2.1-2,4.8-3.2,7.6-3.7,2.8-.6,5.7-.6,8.5-.5,2.9,0,5.7.2,8.6,0,2.8-.2,5.7-.9,8.2-2.3,2.4-1.3,4.3-3.4,5.9-5.5s2.9-4.6,4.2-7c1.3-2.4,2.7-4.7,4.4-6.8,1.7-2.1,3.9-3.9,6.4-5"/>
  <path id="path13596-6" class="st1" d="M124.4,348.6c2.4-.9,5-1.1,7.5-.5,2.5.6,4.8,1.8,6.8,3.3,4,3.1,6.8,7.5,9.5,11.7,6.4,10.4,12.7,20.9,18.6,31.6,4.5,8.1,8.8,16.3,14.3,23.7,3.7,4.9,7.8,9.4,11.6,14.3,3.7,4.9,7.1,10.2,8.7,16,2.1,7.6,1.3,16-2.4,23-2.6,5-6.7,9.3-11.6,12.1-4.9,2.9-10.6,4.3-16.3,4-9-.4-17.3-4.9-25.8-8-16.3-5.9-34-6.7-50.8-11.3-6-1.6-11.9-3.8-17.9-5.3-2.7-.7-5.4-1.2-7.9-2.3-2.5-1.1-4.9-2.7-6.3-5.1-1-1.8-1.4-3.9-1.4-5.9s.6-4.1,1.3-6c1.5-3.8,3.7-7.3,5.2-11.1,2.2-5.8,2.5-12.1,2.1-18.3-.4-6.2-1.5-12.3-1.9-18.5-.2-2.8-.2-5.6.4-8.3.6-2.7,1.7-5.3,3.7-7.3,2.1-2.1,5.1-3.3,8-3.7,3-.5,6-.3,9,0,3,.3,6,.6,9,.4s6-.9,8.5-2.6c2.3-1.5,4-3.8,5.2-6.1,1.3-2.4,2.2-4.9,3.2-7.5,1-2.5,2-5,3.6-7.3,1.5-2.2,3.6-4.2,6.1-5.2"/>
  <path id="path4635-2-4" class="st28" d="M122.2,342.7c2.3-1.1,5-1.4,7.5-.9,2.5.5,4.8,1.7,6.8,3.3,3.9,3.2,6.4,7.7,8.8,12.2,5.3,10.2,10.3,20.7,16.7,30.4,4.6,7,10,13.5,14.7,20.5,6.4,9.4,11.5,19.8,13.7,31,1.4,7.5,1.4,15.6-2.2,22.3-2.4,4.4-6.2,8.1-10.8,10.4-4.5,2.3-9.8,3.2-14.8,2.8-8-.7-15.3-4.6-22.8-7.4-13.4-4.9-27.8-6-41.6-9.7-5.8-1.5-11.5-3.5-17.4-4.8-2.6-.5-5.2-.9-7.7-1.9-2.5-.9-4.8-2.5-6.1-4.8-.9-1.6-1.2-3.5-1.1-5.3.1-1.8.7-3.6,1.4-5.3,1.4-3.4,3.6-6.5,4.7-10,1.6-5.1,1-10.7-.3-16s-3-10.4-3.5-15.8c-.2-2.4-.2-4.8.3-7.2s1.7-4.6,3.4-6.3c2.3-2.2,5.4-3.2,8.5-3.5s6.3.1,9.4.6c3.1.4,6.3.9,9.4.8,3.1-.1,6.3-1,8.8-2.9,2.4-1.9,4-4.7,4.8-7.7.9-2.9,1.2-6,1.5-9s.8-6.1,2-8.9c1.2-2.8,3.2-5.4,5.9-6.8"/>
  <path id="path4792-8" class="st32" d="M150.7,368.3c4.2,7.6,6.8,16.4,11,24,3.8,7.1,8.2,14.3,12.1,20.9,1.7,2.9,5.8,7.4,9.9,14.3,3.7,6.3,7.5,15,9.6,18-1.2-3.4-3.7-12.7-6.6-19.3-2.8-6.2-6-9.7-8-13-3.9-6.5-8.1-12.4-12.1-18.6-5.5-8.6-9.8-18.2-15.8-26.3h0Z"/>
  <path id="path29714-8-2" class="st10" d="M401.3,367.8c-.9-1.8-2.6-3.1-4.4-3.9-1.8-.8-3.9-1-5.9-1-4,0-8,1.1-12,.7-3.4-.3-6.6-1.6-9.8-2.4-3.4-.8-7-1.1-10.3-.2-3.6,1-6.8,3.4-8.8,6.5-1.8,2.8-2.6,6.1-2.8,9.3-.3,3.3,0,6.6.4,9.8.2,2.4.5,4.7,1.1,7,.6,2.3,1.5,4.6,2.9,6.5,2,2.8,5,4.7,8.2,5.9,5.2,1.9,11.2,1.8,16.4-.3,9.1-4,16.9-11.1,21.6-19.9,1.7-3.1,3-6.5,3.8-10,.3-1.4.6-2.8.6-4.2,0-1.4-.2-2.9-.9-4.1"/>
  <path id="path29714-8-3-0" class="st17" d="M401.3,362.7c-.9-1.3-2.6-2.2-4.4-2.8-1.8-.6-3.9-.7-5.9-.7-4,0-8,.8-12,.5-3.4-.2-6.6-1.1-9.8-1.7-3.4-.6-7-.8-10.3-.2-3.6.7-6.8,2.4-8.8,4.7-1.8,2-2.6,4.4-2.8,6.8s0,4.7.4,7.1c.2,1.7.5,3.4,1.1,5.1.6,1.7,1.5,3.3,2.9,4.7,2,2,5,3.4,8.2,4.3,5.2,1.4,11.2,1.3,16.4-.2,9.1-2.9,16.9-8,21.6-14.4,1.7-2.3,3-4.7,3.8-7.2.3-1,.6-2,.6-3,0-1-.2-2.1-.9-3"/>
  <path d="M409.2,358.4c-.7,3.2-2.3,6.1-4.1,8.7-5.6,8.1-13.8,14.3-23.2,17.4-5.6,1.8-11.8,1.9-17.5.3-3.3-1-6.5-2.6-8.8-5.2-2.8-3.2-3.9-7.6-4.2-11.9-.5-5.7.3-11.6,2.7-16.8,1-2.1,2.2-4.1,3.7-5.8.6-.7,1.3-1.4,2-2.1,2.4-2.2,5.3-3.8,8.5-4.6,3.6-.8,7.4-.4,11.1.2,3.5.6,7,1.4,10.5,2.1,3.7.7,7.5,1.3,11,2.7,1.2.5,2.3,1.1,3.4,1.8.5.3,1,.7,1.5,1.1,1.4,1.3,2.6,2.9,3.2,4.6.8,2.3.8,4.9.3,7.3Z"/>
  <path class="st27" d="M406.6,355c-.9,1.6-2.2,2.8-3.6,3.8-3.4,2.4-7.6,3.5-11.8,4.3.9-.8,1.8-1.6,2.7-2.5,1.1-1,2-2.2,2.8-3.5.7-1.3,1.2-2.8.9-4.3-.2-1-.7-1.9-1.4-2.7-.7-.8-1.4-1.4-2.3-2-3.6-2.5-7.8-3.9-12.1-4.8-2.8-.6-5.6-1-8.4-1.3-2.9-.4-5.9-.7-8.8-.2-1,.2-2.1.5-3,.9-.2,0-.4.2-.6.3,0,0-.2,0-.2.1-.2,0-.5.2-.7.3,0,0,0,0-.1,0-.3.1-.5.3-.8.5-.3.2-.5.3-.8.5-.3.2-.5.4-.8.6.6-.7,1.3-1.4,2-2.1,2.4-2.2,5.3-3.8,8.5-4.6,3.6-.8,7.4-.4,11.1.2,3.5.6,7,1.4,10.5,2.1,3.7.7,7.5,1.3,11,2.7,1.2.5,2.3,1.1,3.4,1.8.1.1.3.2.4.3.2.2.4.3.6.5.2.2.4.4.5.5.8.9,1.4,2,1.7,3.1.4,1.7,0,3.6-.8,5.1Z"/>
  <path class="st34" d="M406.6,355c-.9,1.6-2.2,2.8-3.6,3.8-3.4,2.4-7.6,3.5-11.8,4.3.9-.8,1.8-1.6,2.7-2.5,1.1-1,2-2.2,2.8-3.5.7-1.3,1.2-2.8.9-4.3-.2-1-.7-1.9-1.4-2.7-.7-.8-1.4-1.4-2.3-2-3.6-2.5-7.8-3.9-12.1-4.8-2.8-.6-5.6-1-8.4-1.3-2.9-.4-5.9-.7-8.8-.2-1,.2-2.1.5-3,.9-.2,0-.4.2-.6.3,0,0-.2,0-.2.1-.2,0-.5.2-.7.3,0,0,0,0-.1,0-.3.1-.5.3-.8.5-.3.2-.5.3-.8.5s-.5.4-.8.6h0c.6-.7,1.3-1.4,2-2.1,2.4-2.2,5.3-3.8,8.5-4.6,3.6-.8,7.4-.4,11.1.2,3.5.6,7,1.4,10.5,2.1,3.7.7,7.5,1.3,11,2.7,1.2.5,2.3,1.1,3.4,1.8.1.1.3.2.4.3.2.2.4.3.6.5.2.2.4.4.5.5.8.9,1.4,2,1.7,3.1.4,1.7,0,3.6-.8,5.1Z"/>
  <path id="path28795-9-5" class="st37" d="M211.5,90.3c-2.9.2-4.6.6-6.7,2.5s-2.5,3.5-3.4,6.3c-.8,2.5-3,4.4-3.2,7-.1,3.2,0,6.4.3,9.6.4,5.2.8,10.5,2.7,15.4,1,2.4,2.3,4.7,4.2,6.6,1.8,1.9,4.1,3.3,6.7,3.9,2.4.6,4.9.5,7.2-.3,2.3-.7,4.5-2.1,6.2-3.8,2.6-2.5,4.3-5.8,5.3-9.2,1-3.4,1.3-7,1.2-10.6,0-4.5-.6-8.9-2-13.2-.8-2.3-1.8-4.6-3.1-6.7-1-1.7-3.5-1.7-4.9-3.2-1.5-1.6-3.3-1.4-5.3-2.4s-3.1-2.1-5.3-2"/>
  <g id="g605">
    <path id="path29453-9" d="M204.9,111.6c-.6,3.6-.6,7.4.6,10.9.8,2.3,2.2,4.4,3.8,6.1,1.1,1.2,2.3,2.2,3.7,2.9,1.4.7,3.1,1,4.6.6,1.4-.4,2.7-1.3,3.6-2.4.9-1.1,1.5-2.5,2-3.9,1.3-4.1,1.1-8.7-.2-12.8-.9-3-2.5-5.9-4.9-8-1.2-1-2.5-1.7-4-2.1-1.5-.3-3.1-.3-4.4.4-1.5.7-2.7,2-3.5,3.5-.8,1.5-1.2,3.1-1.4,4.8"/>
    <path id="path29465-8" class="st39" d="M212.6,109c.4,1,1.7,1.4,2.4,2.2.7.8,1.4,1.6,1.8,2.6.7,1.9-.7,4.7.8,6.1.5.4,1.4.4,1.9,0,1.9-1.7,1.4-5.1.7-7.5-.7-2.2-2.3-4.2-4.3-5.3-.9-.5-2.3-.9-3.1-.2-.5.4-.4,1.4-.2,2Z"/>
  </g>
  <path class="st29" d="M226.9,97.8c-2.2-.5-4.4-.9-6.7-1.1-5-.5-10.3.1-14.6,2.7-2.9,1.7-5.2,4.2-7.3,6.7.1-2.6.5-5.1,1.3-7.6.9-2.7,2.4-5.3,4.5-7.3,2.1-2,4.9-3.3,7.7-3.4,2.2-.1,4.3.4,6.3,1.4,1.9,1,3.7,2.3,5.2,3.9,1.4,1.4,2.6,3,3.7,4.8Z"/>
  <path id="path28795-9-2-2" class="st30" d="M223.7,84.6c4,3.8,7.1,8.5,9.1,13.4-.9-5.5-2.3-9.9-5.9-13.4-2.2-2-4.7-3.8-7.5-5.1-2.5-1.1-5.2-1.8-6.8-1.8-1.6,0-1.9,0-2.3,0-.3,0-.6,0,.4.1s3.3.7,5.7,1.8c2.4,1.1,4.9,2.9,7.1,4.9Z"/>
  <path id="path28795-3" class="st35" d="M264.9,91.9c-4.2,2.9-11.9,7.5-11.9,7.5-.2.3-.2.6-.3.9-2.3,6.5-1.4,13.7.8,20.2,2.3,6.7,6.1,13,11.9,17,2.9,2,6.3,3.4,9.7,3.8,3.5.4,7.1-.2,10.2-1.8,3.8-2,6.7-5.4,8.5-9.3,1.8-3.9,2.6-8.2,2.8-12.5.2-3.8,0-7.7-.7-11.4-.3-1.6-2.5-2.8-3-4.3-1.9-5.6-5.8-6.5-10.8-9.8-2.5-1.6-4.5-2.6-7.4-3-2.9-.4-3.4-.3-6.1.7-1.6.6-2.3,1.1-3.7,2"/>
  <g id="g613">
    <path id="path28879-6" d="M273.1,101.3c-1.7.1-3.3.7-4.8,1.6s-2.7,2.1-3.6,3.5c-1.9,2.8-2.8,6.2-2.9,9.6-.1,2.5.2,5.1,1,7.5s2.3,4.6,4.2,6.2c2,1.7,4.6,2.7,7.1,2.8s5.2-.6,7.4-2.1c1.7-1.2,3.1-2.8,4-4.6,1-1.8,1.6-3.9,1.8-5.9.5-3.6,0-7.4-1.7-10.7-1.7-3.3-4.5-5.9-8-7.2-1.5-.5-3.1-.8-4.7-.7"/>
    <path id="path28891-5" class="st22" d="M277.2,112.4c-1.4.6-3.6.2-4.2,1.6-.4.8.2,2.2,1,2.5,1.7.7,4.3-.6,4.9-2.2.3-.7-.2-1.9-.9-2.2-.3-.1-.5.2-.8.3Z"/>
    <path id="path28887-6" class="st24" d="M283.6,116.1c1.9-1.9-1.3-6.9-3.8-8.9-1.8-1.5-7.1-3-6.9-1.4s2.6,3.7,4.2,5.2c2,1.9,5.6,6,6.5,5.1Z"/>
  </g>
  <path class="st42" d="M296,106.3c-2.4-1.9-4.8-3.9-7.4-5.6-8.7-5.5-19.9-6.7-29.7-3.7-2,.6-4,1.4-5.9,2.4,1.9-4.7,5.5-8.7,9.8-11.6,1.4-1,2.9-1.8,4.4-2.4,2.8-1.1,5.8-1.4,8.7-1,2.9.4,5.8,1.5,8.3,3.1,5,3.2,8.5,8.4,10.5,14,.5,1.6,1,3.1,1.3,4.8Z"/>
  <path id="path28795-92-2" class="st20" d="M278.4,74.5c-.8,1-1.5,2-2,3.2,3.5.7,6.8,2.2,9.7,4.1,5.7,3.8,10.1,9.4,13.1,15.6.7-.8,1.4-1.6,1.9-2.6-3.1-6.4-7.5-12.3-13.4-16.2-2.8-1.9-6-3.3-9.3-4.1Z"/>
  <path id="path28849-2" class="st18" d="M225.4,125.8c2.9-3.2,4.8-7.1,7.6-10.4s3-3.2,4.8-4.2,4-1.7,6.2-1.5c2.4.2,4.6,1.4,6.4,3,1.7,1.6,3,3.7,4.1,5.9,1,2.1,1.8,4.3,3.2,6.1,1.5,1.9,3.7,3.2,5.6,4.7,1,.8,1.9,1.6,2.6,2.5.8,1,1.4,2.1,1.6,3.3.2,1.2.1,2.5-.3,3.7s-1.1,2.2-2,3.1c-1.8,1.7-4.2,2.6-6.7,3-4.9.7-9.9-.8-14.8-.6-5,.1-9.9,1.9-14.9,1.7-2.5,0-5.1-.7-7.1-2.1-1-.7-1.9-1.6-2.6-2.7-.6-1.1-1-2.3-1.1-3.6,0-1.2.2-2.4.7-3.5.5-1.1,1.2-2.1,1.9-3,1.5-1.9,3.4-3.4,5-5.2"/>
  <path id="path28461-2" class="st23" d="M198.1,156.7c0,.5.3.9.5,1.4.4.7,1.1,1.3,1.7,1.8s1.4.9,2.1,1.3c3.8,2.4,6.8,5.7,9.6,9.2,3.7,4.7,6.9,10,11.8,13.4,3.5,2.4,7.6,3.8,11.8,4.2,4.9.5,9.9-.3,14.7-1.7,4.4-1.3,8.7-3.1,12.6-5.5,7.4-4.6,13.6-11.3,21.8-14.3,1.8-.7,3.7-1.1,5.4-1.9,1.7-.8,3.3-2,4.2-3.7.8-1.7.8-3.6,1-5.4.3-1.9.9-3.8,1.2-5.7.3-1.9.4-4-.5-5.8-.7-1.5-1.9-2.6-3.4-3.4s-3.1-1.1-4.7-1.2c-3.2-.2-6.4.7-9.7,1-4.3.4-8.6-.2-12.9,0-5.3.2-10.6,1.4-16,1.6-6.1.3-12.2-.6-18.3-.9-2.6-.1-5.3,0-7.9.4-2.6.4-5.2,1.3-7.3,2.8-2.1,1.5-3.8,3.5-5.8,5.1-1,.8-2,1.6-3.2,2.2-1.2.6-2.4.9-3.7.9-.7,0-1.3-.1-2,0-.4.1-.7.4-1,.7-.3.3-.5.6-.8,1-.5.8-1,1.6-1.4,2.5"/>
  <path id="path28487-2" class="st21" d="M222.1,163.3c-.6,2.6-.2,5.4,1,7.7,1.3,2.3,3.5,4.1,6,5,3.2,1.1,6.8.5,9.8-1,1.7-.9,3.3-2.2,4.3-3.9.5-.8.8-1.8,1-2.7s0-2-.3-2.9c-.4-1-1-1.9-1.9-2.6-.8-.7-1.8-1.2-2.8-1.5-2-.7-4.2-.7-6.4-.6-3.2.2-6.5.6-9.6,1.2"/>
  <path id="path27476-7-8" class="st26" d="M211.6,143.2c-2.2,1.3-4.2,2.7-6.3,4.1-1.1.8-2.2,1.6-2.7,2.7-.4.8-.5,1.8-.5,2.7,0,.9,0,1.8,0,2.8,0,.6-.2,1.2-.3,1.9,0,.3,0,.6,0,.9,0,.3.2.6.4.8.3.3.7.5,1,.6.4.1.8.2,1.2.3,1.9.4,3.5,1.6,5,2.9,1.4,1.3,2.8,2.8,4.3,4,4.1,3.3,9.5,4.7,14.8,4.8s10.5-1,15.7-2.2c4-.9,8.1-1.9,12-3.3,6-2.2,11.5-5.5,16.3-9.7,2.2-1.9,4.2-4,6.7-5.5,2.2-1.4,4.6-2.3,6.8-3.6.2-.1.4-.2.6-.4s.3-.3.4-.5c.2-.4.2-.8,0-1.2-.1-.4-.3-.7-.6-1-.3-.3-.6-.6-.9-.9-2.3-2-5.4-2.7-8.4-2.9-3-.2-6.1,0-9.1-.6-2.8-.5-5.5-1.5-8.2-2.4-2.8-.9-5.8-1.6-8.7-2.1-6.9-1.1-14.1-.9-21,.5-6.6,1.4-12.9,3.8-18.6,7.2"/>
  <path id="path27476-4" class="st2" d="M210.9,135.9c-3.1,2.1-5.9,4.7-8.3,7.6-1.4,1.7-2.6,3.5-3.3,5.5-.5,1.6-.7,3.3-1.1,5-.1.6-.3,1.2-.3,1.9,0,.3,0,.6.1.9s.3.6.5.8c.4.4.9.6,1.4.7s1,.1,1.6.2c2.4.3,4.5,1.4,6.5,2.8,1.9,1.3,3.7,2.9,5.7,4.2,4.4,2.8,9.7,4,14.9,4.2s10.4-.6,15.6-1.6c4.1-.8,8.1-1.8,12-3.3,5.9-2.3,11.3-5.9,16.3-9.7,2.3-1.7,4.6-3.5,6.7-5.5.7-.7,1.4-1.4,2.1-2,.8-.6,1.6-1.2,2.5-1.5,1.4-.5,3-.3,4.4,0,1.1.2,2.2.4,3.3.4.6,0,1.1-.1,1.6-.3.5-.2,1-.5,1.4-1,.5-.6.7-1.3.7-2.1,0-.7-.2-1.5-.6-2.1-.8-1.3-2-2.1-3.4-2.7-1.9-.8-3.9-1.2-5.8-1.7-6.1-1.5-11.9-3.6-17.5-6.4-2.8-1.4-5.5-2.9-8.2-4.4-2.8-1.5-5.7-2.9-8.7-3.9-6.8-2.1-14.2-1.4-21,.9-7.5,2.6-14.2,7.2-19.3,13.2h0"/>
  <path id="path28357-7" class="st40" d="M258.7,137.4c-.4-.5-.9-.8-1.5-1-.6-.2-1.2-.2-1.8,0-1.2.2-2.2.8-3.2,1.5-2.8,1.9-5.2,4.2-7.3,6.8-2.8,3.4-5.1,7.4-5.9,11.8-.1.7-.2,1.5-.1,2.2s.4,1.5.9,2c.5.5,1.1.8,1.7.8.6,0,1.3,0,1.9-.2,1.2-.4,2.3-1.3,3.3-2.2,5.4-4.8,10.3-10.6,12.2-17.6.2-.7.4-1.4.4-2.1,0-.7-.2-1.5-.6-2"/>
  <g id="g681">
    <path id="path28396-7" class="st16" d="M245.8,127.4c.4,1.2,2.3,1,3.4,1.6,1,.5,1.8,1.6,2.9,1.6,1.1,0,2.7-.4,2.8-1.4.2-1.4-1.8-2.3-3.1-2.8-1.7-.6-3.8-1-5.4-.1-.4.2-.7.7-.6,1.1h0Z"/>
    <path id="path28398-7" class="st8" d="M227.3,126.7c-1.4-.5-3.8,2.1-3,3.4.2.4.9.8,1.3.6.7-.4,1.2-1.7,1.9-2.2.5-.3.4-1.6-.2-1.8Z"/>
  </g>
  <path id="path28570-8" class="st25" d="M295.9,145.7c-.4,3.2-2.7,5.7-5.3,5.7h0c-2.5,0-4.3-2.6-4-5.7.4-3.2,2.7-5.7,5.3-5.7s4.3,2.6,4,5.7h0Z"/>
</svg>